<?xml version="1.0" encoding="UTF-8" standalone="no"?>
<!-- Created with Inkscape (http://www.inkscape.org/) -->

<svg
   xmlns:dc="http://purl.org/dc/elements/1.1/"
   xmlns:cc="http://creativecommons.org/ns#"
   xmlns:rdf="http://www.w3.org/1999/02/22-rdf-syntax-ns#"
   xmlns:svg="http://www.w3.org/2000/svg"
   xmlns="http://www.w3.org/2000/svg"
   xmlns:xlink="http://www.w3.org/1999/xlink"
   xmlns:sodipodi="http://sodipodi.sourceforge.net/DTD/sodipodi-0.dtd"
   xmlns:inkscape="http://www.inkscape.org/namespaces/inkscape"
   width="613.43719"
   height="190.63881"
   viewBox="0 0 613.43719 190.63881"
   id="svg2"
   version="1.1"
   inkscape:version="0.92.5 (2060ec1f9f, 2020-04-08)"
   sodipodi:docname="logo.svg">
  <defs
     id="defs4">
    <linearGradient
       data-v-fde0c5aa=""
       gradientTransform="rotate(25)"
       id="39b4e5af-ff61-4a1e-b2d6-6cfaa59b0551"
       x1="0"
       y1="0"
       x2="1"
       y2="0">
      <stop
         data-v-fde0c5aa=""
         offset="0%"
         stop-color="#20484F"
         stop-opacity="1"
         id="stop11" />
      <stop
         data-v-fde0c5aa=""
         offset="100%"
         stop-color="#4E9BAB"
         stop-opacity="1"
         id="stop13" />
    </linearGradient>
    <linearGradient
       gradientUnits="userSpaceOnUse"
       y2="-3.8504029e-05"
       x2="99.998009"
       y1="-3.8504029e-05"
       x1="-1.8577221e-05"
       gradientTransform="scale(0.9999799,1.0000201)"
       id="linearGradient72"
       xlink:href="#39b4e5af-ff61-4a1e-b2d6-6cfaa59b0551"
       inkscape:collect="always" />
    <linearGradient
       gradientUnits="userSpaceOnUse"
       y2="3.4263947"
       x2="79.56749"
       y1="3.4263947"
       x1="26.181562"
       gradientTransform="scale(1.0167344,0.98354107)"
       id="linearGradient74"
       xlink:href="#39b4e5af-ff61-4a1e-b2d6-6cfaa59b0551"
       inkscape:collect="always" />
    <linearGradient
       gradientUnits="userSpaceOnUse"
       y2="83.945457"
       x2="63.145016"
       y1="83.945457"
       x1="13.732149"
       gradientTransform="scale(1.5044259,0.66470538)"
       id="linearGradient76"
       xlink:href="#39b4e5af-ff61-4a1e-b2d6-6cfaa59b0551"
       inkscape:collect="always" />
    <linearGradient
       inkscape:collect="always"
       xlink:href="#39b4e5af-ff61-4a1e-b2d6-6cfaa59b0551"
       id="linearGradient141"
       gradientUnits="userSpaceOnUse"
       gradientTransform="scale(0.9999799,1.0000201)"
       x1="-1.8577221e-05"
       y1="-3.8504029e-05"
       x2="99.998009"
       y2="-3.8504029e-05" />
    <linearGradient
       inkscape:collect="always"
       xlink:href="#39b4e5af-ff61-4a1e-b2d6-6cfaa59b0551"
       id="linearGradient143"
       gradientUnits="userSpaceOnUse"
       gradientTransform="scale(0.9999799,1.0000201)"
       x1="-1.8577221e-05"
       y1="-3.8504029e-05"
       x2="99.998009"
       y2="-3.8504029e-05" />
  </defs>
  <sodipodi:namedview
     id="base"
     pagecolor="#ffffff"
     bordercolor="#666666"
     borderopacity="1.0"
     inkscape:pageopacity="0.0"
     inkscape:pageshadow="2"
     inkscape:zoom="1.407"
     inkscape:cx="246.22083"
     inkscape:cy="34.614843"
     inkscape:document-units="px"
     inkscape:current-layer="layer1"
     showgrid="false"
     units="px"
     inkscape:showpageshadow="false"
     inkscape:window-width="1920"
     inkscape:window-height="1018"
     inkscape:window-x="0"
     inkscape:window-y="34"
     inkscape:window-maximized="1" />
  <metadata
     id="metadata7">
    <rdf:RDF>
      <cc:Work
         rdf:about="">
        <dc:format>image/svg+xml</dc:format>
        <dc:type
           rdf:resource="http://purl.org/dc/dcmitype/StillImage" />
        <dc:title />
        <dc:creator>
          <cc:Agent>
            <dc:title>Ramiro Gómez</dc:title>
          </cc:Agent>
        </dc:creator>
        <dc:rights>
          <cc:Agent>
            <dc:title>© Ramiro Gómez 2018 - ramiro.org</dc:title>
          </cc:Agent>
        </dc:rights>
      </cc:Work>
    </rdf:RDF>
  </metadata>
  <g
     inkscape:label="Layer 1"
     inkscape:groupmode="layer"
     id="layer1"
     transform="translate(687.41558,-401.91766)">
    <g
       style="fill:url(#linearGradient72);stroke:none"
       data-v-fde0c5aa=""
       id="0220a3c0-75f1-4044-ac1e-42991a93bf7b"
       transform="matrix(1.9063873,0,0,1.9063873,-687.41554,401.91773)">
      <g
         style="fill:url(#linearGradient143)"
         id="g24">
        <path
           style="fill:url(#linearGradient141)"
           inkscape:connector-curvature="0"
           d="M 93.917,71.206 A 48.9,48.9 0 0 1 84.898,84.041 L 78.54,77.684 a 39.821,39.821 0 0 0 7.479,-10.792 h -0.001 c 2.37,-5.044 3.657,-10.572 3.743,-16.298 h 9.015 a 48.519,48.519 0 0 1 -4.859,20.612 l 1.09,0.593 c 3.259,-6.713 4.989,-14.126 4.989,-21.808 0,-6.533 -1.253,-12.87 -3.631,-18.75 A 49.874,49.874 0 0 0 85.351,14.637 49.904,49.904 0 0 0 68.677,3.595 L 68.675,3.6 A 49.927,49.927 0 0 0 49.998,0 49.67,49.67 0 0 0 27.63,5.302 l 0.55,1.052 A 48.527,48.527 0 0 1 49.396,1.219 v 9.017 a 39.515,39.515 0 0 0 -17.025,4.128 l 0.547,1.049 a 38.375,38.375 0 0 1 16.478,-3.974 v 8.164 a 30.216,30.216 0 0 0 -12.685,3.059 l 0.263,0.502 -0.263,-0.503 a 30.553,30.553 0 0 0 -7.77,5.428 l -5.783,-5.782 a 38.53,38.53 0 0 1 9.759,-6.894 L 32.37,14.364 A 39.968,39.968 0 0 0 22.319,21.468 L 15.931,15.081 A 48.824,48.824 0 0 1 28.179,6.354 L 27.629,5.302 A 50.321,50.321 0 0 0 5.144,27.939 L 5.709,28.244 5.144,27.939 A 49.677,49.677 0 0 0 0,49.996 c 0,4.841 0.691,9.571 2.012,14.092 L 3.193,63.791 A 48.942,48.942 0 0 1 1.219,50.599 h 9.015 a 39.857,39.857 0 0 0 1.705,10.989 l 1.169,-0.294 a 38.653,38.653 0 0 1 -1.67,-10.695 h 8.164 c 0.023,1.202 0.136,2.388 0.297,3.562 -0.573,0.063 -1.116,0.249 -1.116,0.249 l -0.243,0.834 c -0.554,0.102 -0.902,1.007 -0.902,1.007 -0.454,0.153 -0.811,0.714 -0.66,0.868 0.151,0.153 -0.278,0.208 -0.278,0.208 v 1.146 l -0.243,0.348 0.069,1.215 c 0.303,0 0.243,0.59 0.243,0.59 -0.504,0.052 -0.417,0.695 -0.417,0.695 l -1.042,0.382 -0.208,0.277 -1.319,-0.034 -0.339,0.338 c -0.11,-0.328 -0.231,-0.654 -0.333,-0.987 l -1.169,0.295 c 0.036,0.12 0.081,0.235 0.119,0.354 H 10.555 L 10.451,61.703 9.965,61.599 9.896,61.009 9.132,61.078 8.993,61.39 8.194,61.424 C 8.245,61.937 7.391,62.704 7.292,62.5 7.19,62.295 6.623,61.734 6.875,61.633 7.127,61.529 7.778,61.424 7.778,61.424 V 61.077 L 5.938,61.008 5.73,61.32 4.966,61.389 v 0.798 l -0.347,0.104 c -0.252,0.153 0.035,0.729 0.035,0.729 0.354,0.357 -0.035,0.902 -0.035,0.902 -0.303,0.308 0.243,0.903 0.243,0.903 0.404,0.102 -0.243,0.382 -0.243,0.382 C 4.718,65.72 5,65.867 5,65.867 4.696,66.38 5.208,66.666 5.208,66.666 l 0.069,0.868 0.347,0.208 v 0.556 l 0.208,0.347 h 0.799 l -0.07,-1.284 c -0.706,-0.819 0.608,-1 0.66,-0.694 0.051,0.307 0.625,0.451 0.625,0.451 0.101,0.769 0.964,1.219 1.215,0.451 0.252,-0.768 0.439,-0.288 0.59,0.069 0.151,0.358 1.111,1.216 1.111,1.216 h 0.764 l 0.104,0.729 c 0.857,-0.052 1.105,0.039 1.458,1.216 0.354,1.176 1.319,1.493 1.319,1.493 l 0.694,-0.07 c 0,-0.612 0.694,0.11 0.694,0.417 0,0.306 1.354,1.493 1.354,1.493 l 1.389,0.312 0.286,0.229 a 40.416,40.416 0 0 0 2.63,3.017 l -6.375,6.376 C 9.441,78.284 5.411,71.347 3.196,63.793 L 2.015,64.09 c 2.324,7.952 6.611,15.241 12.632,21.262 a 50.082,50.082 0 0 0 13.792,9.781 l 0.598,-1.062 A 48.779,48.779 0 0 1 15.934,84.916 l 6.375,-6.374 a 39.746,39.746 0 0 0 11.175,7.647 l 0.595,-1.055 A 38.594,38.594 0 0 1 23.161,77.69 l 1.18,-1.179 c 0.062,0.113 0.114,0.252 0.138,0.432 0.1,0.768 0.451,0.625 0.451,0.625 l 2.882,-0.069 1.007,-0.868 2.569,-0.035 C 32.7,76.545 31.883,74.721 31.631,74.721 31.48,74.603 31.455,74.358 31.48,74.086 a 30.22,30.22 0 0 0 6.63,3.904 l 0.595,-1.054 C 35.88,75.75 33.257,74.09 30.895,72.039 l -1.079,-0.997 6.347,-6.347 a 20.086,20.086 0 0 0 7.018,4.314 c 0.706,0.253 1.43,0.451 2.163,0.624 -0.129,0.114 -0.201,0.221 -0.171,0.296 0.101,0.256 -0.417,0.521 -0.417,0.521 l -0.452,0.139 -0.312,0.452 -0.59,0.208 -0.104,1.076 -0.312,0.208 v 0.452 l -0.347,0.104 v 0.278 l -0.521,0.034 0.312,0.764 0.417,0.209 c 0.706,0.102 0.382,0.972 0.382,0.972 l 0.417,0.069 0.208,0.556 0.382,0.799 c 0.152,0.615 0.631,0.468 0.833,0.417 0.202,-0.05 0.382,0.625 0.382,0.625 l 2.014,0.034 c 0,0 -0.075,0.211 0.278,0.312 0.195,0.057 0.978,0.117 1.66,0.136 v 0.899 A 29.066,29.066 0 0 1 38.709,76.941 l -0.595,1.055 a 30.295,30.295 0 0 0 11.289,2.401 v 8.164 A 38.413,38.413 0 0 1 34.084,85.139 l -0.595,1.055 a 39.61,39.61 0 0 0 15.914,3.572 v 9.015 C 42.242,98.695 35.332,97.072 29.043,94.075 l -0.599,1.062 c 6.644,3.181 13.972,4.863 21.559,4.863 7.958,0 15.627,-1.86 22.528,-5.352 l -0.569,-1.104 a 48.446,48.446 0 0 1 -21.356,5.237 v -9.015 a 39.72,39.72 0 0 0 10.698,-1.632 l 0.881,0.267 0.278,0.833 0.382,-0.069 0.312,-0.243 1.215,-0.069 0.591,-0.556 0.659,-0.104 4.713,-4.009 a 39.824,39.824 0 0 0 7.359,-5.637 l 6.358,6.358 a 49.015,49.015 0 0 1 -12.09,8.639 l 0.57,1.104 A 50.125,50.125 0 0 0 85.355,85.356 50,50 0 0 0 95.009,71.81 L 95.006,71.8 Z M 76.691,61.799 a 29.292,29.292 0 0 1 -5.587,8.34 C 71.003,69.116 70.76,67.986 70.76,67.986 l -0.382,-0.208 0.104,-1.216 h -0.556 l -0.903,1.181 -0.109,0.315 -0.521,-0.521 0.249,-0.281 -0.034,-0.59 0.347,-0.312 v -0.521 l 0.312,-0.104 0.035,-1.111 0.277,-0.069 V 62.084 L 68.815,61.39 c -0.05,0.256 -0.868,0.243 -0.868,0.243 0,0 -0.195,0.347 -0.347,0.347 -0.152,0 0.206,0.49 0.104,0.799 -0.1,0.306 -0.521,0.277 -0.521,0.277 l -0.764,0.209 -0.174,0.277 H 65.412 L 65.36,63.048 c 0.065,-0.078 0.135,-0.153 0.2,-0.232 l 0.685,-0.211 0.486,-0.243 0.243,-0.521 c 0.05,-0.511 0.659,-0.451 0.659,-0.451 0,0 1.166,-0.964 1.216,-1.424 0.052,-0.461 0.475,-1.771 1.181,-1.771 h 1.284 c 0.504,-0.205 0.382,-0.868 0.382,-0.868 l 0.625,-0.104 0.104,0.382 c 0,0 0.907,0.085 1.007,-0.069 0.102,-0.152 0.303,-0.501 0.556,-0.347 0.251,0.153 1.076,-0.348 1.076,-0.348 0.05,-0.358 1.319,-0.208 1.319,-0.208 l 0.139,-0.486 c 0,0 -0.854,-1.146 -1.007,-1.146 -0.151,0 -0.975,-0.742 -1.076,-0.486 -0.807,-0.204 -0.729,-1.319 -0.729,-1.319 l -0.312,-0.729 c 0,-0.41 -0.751,-1.282 -0.902,-1.18 -0.314,-0.234 -0.396,-0.479 -0.378,-0.69 h 7.068 a 28.974,28.974 0 0 1 -2.495,11.202 z m -27.596,-8.778 0.208,-0.243 -0.104,-0.347 c -0.404,-0.154 -0.218,-0.519 0.035,-0.417 0.252,0.103 -0.347,-0.451 -0.347,-0.451 -0.302,0.256 -0.556,-0.312 -0.556,-0.312 H 47.567 V 50.522 L 47.463,49.863 46.734,49.516 46.178,50 46.074,50.729 v 0.451 l -0.521,0.104 -0.104,1.389 -0.382,0.173 0.035,0.486 -0.556,0.174 -0.556,0.139 -0.104,0.66 -0.382,0.277 -0.208,0.591 -0.239,1.471 a 9.606,9.606 0 0 1 -1.735,-2.512 c 0.089,-0.359 0.099,-0.695 0.099,-0.695 -0.453,-0.204 -0.192,-0.927 0.312,-0.312 0.504,0.613 -0.312,-1.216 -0.312,-1.216 l -0.417,-0.347 -0.498,-0.066 a 9.679,9.679 0 0 1 -0.127,-1.5 c 0,-0.213 0.018,-0.424 0.031,-0.636 0.146,-0.127 0.315,-0.055 0.315,-0.055 l 0.278,0.243 0.486,0.347 0.035,0.312 -0.312,0.174 -0.035,0.417 0.139,0.556 h 0.417 c 0.151,-0.819 1.191,-0.825 1.493,-0.312 l 0.312,-0.729 c -0.706,-0.358 0.006,-0.916 0.208,-0.66 0.202,0.256 0.66,-0.66 0.66,-0.66 0,0 0.095,0.1 0.139,0.139 a 1.814,1.814 0 0 0 -0.139,-0.277 c -0.354,-0.615 0.243,-0.938 0.243,-0.938 -0.1,-0.614 0.66,-0.521 0.66,-0.521 l 0.035,-0.798 -0.695,-0.07 c -0.15,0.717 -0.754,0.119 -0.451,-0.035 0.303,-0.154 0.59,-0.486 0.59,-0.486 V 45.521 L 45.1,45.417 45.169,44.896 H 45.9 l 0.66,-0.312 0.174,-0.243 0.694,-0.07 1.007,-0.903 -0.104,-0.417 c -0.605,0 0,-0.451 0,-0.451 l 0.104,-0.764 H 47.879 L 47.78,40.647 a 9.613,9.613 0 0 1 2.116,-0.262 l 0.101,1.213 -0.556,-0.174 h -0.347 l -0.173,-0.312 -0.278,-0.035 v 1.111 l 0.278,0.243 0.278,0.277 0.486,0.035 0.104,0.625 1.25,0.035 0.173,0.277 0.765,0.035 1.458,1.493 -0.104,0.452 -0.243,0.173 c 0.103,0.358 -0.659,0.139 -0.659,0.139 v 0.312 l 0.347,0.035 0.348,0.208 0.521,-0.868 c 0.555,-0.358 0.781,0.144 0.833,0.451 0.051,0.307 -0.242,0.278 -0.242,0.278 v 0.694 l 0.312,0.104 c 0.505,0.614 -0.209,0.972 -0.209,0.972 L 54.2,48.679 c -0.152,0.46 -0.729,0.347 -0.729,0.347 l -0.208,0.312 -0.59,0.174 1.18,0.139 c 0.114,-0.41 0.438,-0.518 0.591,-0.312 0.151,0.205 0.139,0.59 0.139,0.59 l 0.312,0.035 -0.069,0.555 0.312,0.104 v 1.632 l 0.348,0.417 c 0.604,-0.255 0.616,0.143 0.312,0.347 -0.301,0.204 -0.104,1.146 -0.104,1.146 l -0.243,0.243 v 0.417 l -0.312,0.208 v 0.556 c -0.505,-0.256 -1.098,-0.154 -1.25,0 -0.453,-0.307 -1.424,-0.187 -1.424,0.069 0.302,0.41 -0.347,0.486 -0.347,0.486 l -0.348,0.417 c 0.253,0.512 -0.243,0.556 -0.243,0.556 v 0.972 l -0.627,0.591 0.046,0.888 a 9.537,9.537 0 0 1 -7.296,-2.356 0.242,0.242 0 0 0 0.097,-0.093 c 0.252,-0.409 0.66,-0.452 0.66,-0.452 l 0.139,-0.347 1.354,0.034 c 0.101,-0.563 0.764,-0.359 0.764,-0.104 0,0.255 0.521,0.069 0.521,0.069 l 0.347,-0.556 h 0.556 l 0.035,-0.625 0.278,-0.174 v -0.902 c 0.807,-0.255 0.694,-1.041 0.694,-1.041 z M 29.873,48.733 c -0.081,0.157 -0.152,0.26 -0.152,0.26 -0.059,0.089 -0.09,0.238 -0.108,0.4 h -1.915 l 0.009,-0.053 -0.556,-0.035 c -0.605,-0.359 -0.312,-1.701 -0.312,-1.701 0.958,-1.434 2.083,-0.625 2.083,-0.625 l 0.694,-0.035 c 0.187,0.126 0.294,0.274 0.372,0.428 -0.058,0.449 -0.087,0.905 -0.115,1.361 z m 10.75,-6.788 c -0.202,0.46 -0.694,-0.069 -0.694,-0.069 -0.1,-0.307 -0.833,0 -0.833,0 0,0.563 -0.938,-0.243 -0.938,-0.243 l -1.771,-1.285 c -1.009,-0.921 -2.52,0.265 -2.569,0.521 0.027,0.387 -0.318,0.394 -0.643,0.32 a 18.996,18.996 0 0 1 2.982,-4.181 l 4.955,4.955 z m -2.257,9.409 0.173,-0.312 0.092,-0.443 h 0.573 c 0.02,0.365 0.063,0.726 0.119,1.081 l -0.333,0.091 -0.104,-0.208 -0.139,0.556 h -0.903 l -0.035,-0.625 z m 22.71,-28.381 a 28.986,28.986 0 0 1 6.872,4.008 c 0.052,0.357 0.452,0.52 0.452,0.52 l 0.192,0.017 c 0.183,0.151 0.357,0.312 0.536,0.468 v 0.384 c 0.353,-0.089 0.896,0.313 0.994,0.656 L 63.839,35.31 A 20.163,20.163 0 0 0 57.78,31.368 20.138,20.138 0 0 0 50.6,29.826 v -9.015 c 3.65,0.073 7.188,0.815 10.476,2.162 z m -7.19,37.443 0.243,0.104 -0.451,0.347 -0.417,0.452 -0.486,-0.14 -0.625,-0.069 -0.173,-0.347 -0.383,-0.035 -0.034,0.694 -0.243,0.312 -0.625,0.625 c 0.643,0 0.217,0.349 -0.087,0.491 v -2.056 a 10.916,10.916 0 0 0 1.916,-0.281 c 0.068,0.063 0.115,0.109 0.115,0.109 h 0.451 l 0.02,-0.269 c 0.236,-0.07 0.47,-0.152 0.7,-0.238 0.011,0.145 0.079,0.301 0.079,0.301 z M 57.34,32.489 a 18.93,18.93 0 0 1 5.647,3.672 l -0.329,0.33 c -0.171,-0.162 -0.717,-0.269 -0.717,-0.448 0,-0.154 -0.262,-0.326 -0.383,-0.278 -0.04,0.016 -0.082,0.062 -0.069,0.139 0.05,0.307 -0.349,0.449 -0.451,0.347 -0.1,-0.103 -0.417,0.312 -0.417,0.312 0,0.153 -0.093,0.365 0.209,0.417 0.304,0.05 0.853,-0.203 0.902,0.104 0.018,0.104 0.034,0.193 0.057,0.275 l -1.967,1.967 a 3.297,3.297 0 0 1 -0.555,-0.02 c -0.151,0.461 -0.861,-0.04 -0.66,-0.347 0.202,-0.307 0.209,-0.521 0.209,-0.521 l -0.243,-0.035 -0.312,0.556 c -0.706,0 -0.916,0.403 -0.764,0.66 0.151,0.255 -0.176,-0.045 -0.278,0.312 -0.1,0.358 0.045,0.367 0.348,0.521 0.303,0.154 -0.167,0.161 0.034,0.417 0.132,0.167 0.428,0.114 0.525,0.153 l -0.371,0.371 c -0.347,0.116 -0.744,0.031 -0.744,0.031 -0.011,0.105 -0.074,0.178 -0.158,0.23 a 10.781,10.781 0 0 0 -2.651,-1.615 c 0.156,-0.118 0.425,-0.1 0.553,-0.456 0.203,-0.563 0.277,-1.493 0.277,-1.493 0,0 -0.208,-0.019 -0.416,0 -0.209,0.019 -0.392,0.081 -0.417,0.208 -0.05,0.256 -0.556,0.417 -0.556,0.417 0,0 -0.43,0.142 -0.277,0.347 0.151,0.205 -0.278,0.312 -0.278,0.312 0,0 0.021,0.138 0.003,0.27 a 10.81,10.81 0 0 0 -2.49,-0.437 V 31.03 c 2.35,0.074 4.624,0.573 6.739,1.459 z m 5.33,7.303 c -0.352,0.668 -1.121,-0.069 -1.08,-0.541 l 1.323,-1.325 c 0.08,0.009 0.162,0.026 0.243,0.026 0.302,0 0.972,-0.104 0.972,-0.104 0,0 0.277,0.04 0.517,0.105 0.243,0.294 0.479,0.591 0.702,0.896 L 64.719,38.75 64.337,38.715 63.573,38.646 c -0.756,0.513 -0.903,1.146 -0.903,1.146 z m -8.88,19.041 c -0.296,0.128 -0.6,0.242 -0.91,0.34 V 58.056 L 53.366,57.5 c 0.526,-0.177 0.452,0.938 0.424,1.333 z m 7.525,7.883 c 0.029,-0.02 0.062,-0.037 0.091,-0.058 l 1.195,0.598 C 62.753,67.46 63.4,67.43 63.4,67.43 l 0.208,0.243 c 0,0 0.407,-0.065 0.66,0.243 0.251,0.307 1.562,0.069 1.562,0.069 l 0.347,0.312 0.556,0.208 0.941,0.021 0.576,0.577 c -0.908,0.423 -2.756,0.285 -2.872,0.166 -0.151,-0.153 -1.215,-0.625 -1.215,-0.625 0,0 -0.785,-0.656 -0.938,-0.451 -0.153,0.205 -0.868,-0.258 -0.868,-0.104 0,0.153 -0.659,-0.348 -0.659,-0.348 L 60.691,67.359 61.455,67.22 Z M 65.9,40.139 c 0.151,0.769 0.399,1.077 -0.104,1.077 -0.506,0 -0.625,-0.417 -0.625,-0.417 0,0 -0.382,-0.135 -0.382,0.069 0,0.205 -0.152,0.594 0,0.798 0.15,0.205 -0.23,0.536 -0.382,0.382 -0.149,-0.153 -0.553,-0.645 -0.451,-0.798 0.1,-0.154 -0.703,-1.097 0.104,-1.25 0.808,-0.153 -0.025,-0.627 0.278,-0.729 l 0.382,-0.208 h 0.416 l 0.227,-0.193 c 0.198,0.272 0.389,0.549 0.571,0.832 A 0.78,0.78 0 0 0 65.9,40.139 Z m -14.791,25.485 1.146,-0.243 c 0.1,-0.512 0.625,0.104 0.625,0.104 0.505,-0.052 0.59,0.277 0.59,0.277 l 0.66,0.104 c 0.554,0.154 0.21,0.215 0.243,0.417 0.05,0.306 0.312,0.208 0.312,0.208 l 0.104,-0.659 0.312,0.034 -0.312,-0.347 -0.555,-0.243 -0.591,-0.278 c -0.403,-0.562 0.083,-0.434 0.486,-0.382 h 0.659 c 0,0 0.765,0.994 0.765,1.25 0,0.256 0.347,0.314 0.347,0.314 l 0.451,-0.034 0.14,0.347 h 0.451 l 0.174,0.312 h 0.902 L 58.052,66.354 57.219,66.18 57.15,65.694 56.56,65.521 c -0.202,-0.869 0.13,-1.14 0.382,-0.729 l 0.312,0.069 -0.104,-0.764 0.348,-0.104 -0.104,-1.076 -0.277,-0.104 v -0.347 l 1.249,0.034 c -0.1,-0.666 0.07,-0.972 0.07,-0.972 h 0.347 l 0.035,0.277 1.562,0.14 h 0.069 c 0.605,0.357 0.306,0.8 0.104,0.902 -0.201,0.102 -0.555,0.104 -0.555,0.104 l -0.104,0.208 -1.319,0.104 -0.104,0.521 c -0.655,-0.104 -0.916,0.614 -0.764,0.972 0.151,0.358 0,0.66 0,0.66 l 0.556,0.277 0.729,-0.208 c 0.103,-0.512 0.534,-0.632 0.938,-0.938 0.404,-0.307 1.07,0.562 0.868,0.973 l -0.057,0.124 a 18.934,18.934 0 0 1 -2.435,1.423 18.904,18.904 0 0 1 -4.253,1.457 c -0.017,-0.011 -0.026,-0.019 -0.026,-0.019 l -0.556,-0.174 -0.034,-0.764 c -0.102,-0.512 -1.058,-0.497 -1.007,-0.139 0.049,0.349 -1.728,0.152 -1.823,0.141 v -1.407 z m -0.504,12.364 c 0.332,-0.245 1.279,-0.259 1.719,0.066 0.554,0.408 1.319,0.173 1.319,0.173 l 0.537,0.665 c -1.172,0.17 -2.363,0.276 -3.575,0.301 z m 22.48,-28.599 c 0.063,-0.088 0.105,-0.152 0.105,-0.152 l 0.243,-0.694 0.868,-0.278 0.104,-0.66 -0.451,-0.035 c 0,0 0.511,-0.938 0.764,-0.938 0.253,0 1.899,-0.002 2.049,-0.104 0.152,-0.102 0.451,-0.923 0.451,-1.076 0,-0.153 0.406,-0.191 0.556,-0.243 0.152,-0.05 0.524,-0.455 0.625,-0.66 0.101,-0.206 -0.25,-1.49 -0.451,-1.285 -0.202,0.205 -0.66,0.312 -0.66,0.312 l -0.173,0.556 -0.243,0.208 c 0,0 0.05,0.162 0,0.521 -0.05,0.358 -0.486,0.556 -0.486,0.556 l -0.208,0.243 c 0,0 -1.209,0.065 -1.354,0 -0.453,-0.205 -0.164,-0.815 0.139,-0.764 0.302,0.052 -0.034,-0.868 -0.034,-0.868 l 0.382,-0.035 c 0,0 0.057,-0.937 0.208,-0.937 0.152,0 -0.041,-0.298 -0.243,-0.452 -0.201,-0.153 -0.458,-0.676 -0.659,-0.625 -0.202,0.051 -1.007,0 -1.007,0 l -0.174,0.312 -0.556,0.104 c 0,0 0.062,0.405 -0.035,0.521 -0.304,0.358 -1.476,1.105 -0.972,-0.173 l 0.174,-0.312 v -0.452 l -0.903,-0.035 c 0,0 -0.451,-0.177 -0.451,-0.382 0,-0.205 -0.069,-0.452 -0.069,-0.452 L 69.582,39.93 68.298,39.791 68.194,39.514 67.465,39.41 A 1.911,1.911 0 0 0 67.102,39.273 20.346,20.346 0 0 0 65.97,37.649 1.726,1.726 0 0 1 65.937,37.535 C 65.892,37.352 65.324,36.559 65.025,36.542 64.911,36.414 64.81,36.276 64.692,36.151 l 6.273,-6.272 c 0.211,0.193 0.182,0.27 0.458,0.47 a 0.621,0.621 0 0 0 0.273,0.117 c 0.169,0.187 0.338,0.375 0.501,0.565 l -0.115,0.151 c 0,0.579 0.27,0.414 0.539,0.361 0.086,0.104 0.175,0.208 0.259,0.313 0.024,0.34 0.031,0.816 0.557,0.749 h 0.013 c 0.66,0.888 1.27,1.807 1.821,2.757 l 0.006,0.021 h 0.006 c 0.087,0.149 0.17,0.3 0.254,0.451 -0.099,0.104 -0.155,0.209 -0.155,0.209 l -0.833,0.104 v 0.833 l -0.383,0.139 0.035,0.521 0.556,-0.069 c 0,0 0.021,0.637 0.174,0.382 0.151,-0.256 1.387,0.045 1.284,0.66 -0.041,0.252 1.263,0.917 1.111,1.736 a 0.71,0.71 0 0 1 0.241,0.083 c 0.243,0.703 0.463,1.413 0.652,2.135 l -0.095,0.178 c 0,0 0.072,0.042 0.169,0.128 0.169,0.674 0.321,1.352 0.441,2.039 -0.049,0.525 -0.175,1.01 -0.438,1.166 -0.605,0.358 0.035,0.139 0.035,0.139 l -0.104,1.146 c 0.152,0.512 0.404,0.256 0.556,0 0.08,-0.136 0.166,-0.213 0.259,-0.292 0.076,0.768 0.133,1.54 0.149,2.32 h -6.106 z m 6.911,-4.736 c -0.15,-0.153 0.174,-0.868 0.174,-0.868 0,0 0.202,-0.424 0,-0.833 -0.201,-0.41 0.021,-0.871 0.174,-1.076 L 79.962,41.668 79.545,41.633 79.24,41.68 c -0.091,-0.319 -0.202,-0.631 -0.303,-0.947 l 0.018,-0.038 0.243,0.069 V 40.452 L 78.8,40.328 a 37.336,37.336 0 0 0 -0.19,-0.564 l -0.072,-1.117 -0.347,-0.243 0.104,-0.417 -0.416,-0.139 0.208,-0.694 -0.347,-0.694 h -0.514 a 30.203,30.203 0 0 0 -0.765,-1.444 0.8,0.8 0 0 1 0.201,-0.083 c 0.278,-0.077 0.386,-0.11 0.417,-0.104 l -0.035,-0.521 -0.451,-0.312 -0.174,-0.625 c 0,0 -0.535,0.11 -0.485,0.417 0.012,0.073 -0.03,0.129 -0.104,0.175 a 32.055,32.055 0 0 0 -1.108,-1.665 c 0.011,-0.024 0.02,-0.049 0.032,-0.073 0.202,-0.358 0.11,-0.592 -0.243,-0.694 -0.354,-0.103 -0.352,-0.076 -0.451,-0.486 -0.1,-0.409 -0.521,-0.521 -0.521,-0.521 l -0.139,-0.625 -0.38,0.24 c -0.195,-0.225 -0.398,-0.444 -0.601,-0.664 l 0.183,-0.583 A 0.46,0.46 0 0 1 72.25,28.595 l 1.573,-1.574 c 0.704,0.414 1.226,1.38 1.139,1.559 -0.101,0.205 0.591,0.139 0.591,0.139 0.102,-0.922 0.957,-0.62 1.007,-0.312 0.052,0.307 0.208,0.972 0.208,0.972 l 0.243,0.486 0.382,0.347 0.556,-0.07 0.139,0.312 0.66,0.104 c 0,0 0.54,0.61 0.59,0.764 0.051,0.153 0.805,0.123 1.007,0.174 0.202,0.051 0.506,0.196 0.556,0.451 0.051,0.256 0.382,0.66 0.382,0.66 0,0 0.574,0.177 0.625,0.382 0.05,0.205 0.312,0.66 0.312,0.66 l 0.521,0.417 0.035,0.451 0.556,0.035 0.139,0.625 0.938,-0.069 0.486,-0.347 c 0.152,-0.083 0.293,-0.171 0.423,-0.261 0.184,0.419 0.368,0.838 0.536,1.263 a 38.484,38.484 0 0 1 2.705,13.629 h -8.163 c -0.028,-1.429 -0.183,-2.833 -0.404,-4.221 0.051,-0.23 0.087,-0.435 0.004,-0.518 z M 95.249,31.721 a 48.688,48.688 0 0 1 3.528,17.667 H 89.761 A 39.7,39.7 0 0 0 86.959,35.284 37.303,37.303 0 0 0 86.147,33.398 c 0.075,-0.278 0.217,-0.582 0.549,-0.48 0.504,0.154 0.174,-1.111 0.174,-1.111 0,0 -0.709,-0.507 -0.659,-0.764 0.05,-0.255 -0.71,-0.767 -0.66,-0.972 0.05,-0.205 -0.64,-0.628 -0.59,-0.833 0.05,-0.205 -0.382,-0.764 -0.382,-0.764 l -0.729,-0.729 -0.104,-0.451 -0.625,-0.07 -1.215,-1.458 0.069,-0.417 -0.347,-0.07 v -0.555 l -0.348,-0.208 -0.556,-0.035 -1.111,-1.25 -0.104,-0.556 h -0.556 l 0.085,-0.873 5.875,-5.876 A 48.632,48.632 0 0 1 95.249,31.721 Z M 50.6,1.218 a 48.704,48.704 0 0 1 17.635,3.515 l 0.002,-0.005 a 48.646,48.646 0 0 1 15.826,10.346 l -5.402,5.403 c -0.193,0.049 -0.396,0.073 -0.539,0.011 -0.354,-0.153 0.173,-0.521 0.173,-0.521 V 19.55 l -0.312,-0.312 c 0,0 -0.853,0.119 -0.902,-0.035 -0.05,-0.154 -0.208,-0.833 -0.208,-0.833 l -0.035,-0.868 -0.347,-0.139 -0.07,-0.312 -0.555,0.069 v -0.625 l -0.312,-0.104 -0.278,-0.139 -0.069,-0.625 -1.111,-0.069 -0.347,-0.486 -0.417,-0.625 -1.25,-0.104 -0.312,-0.312 -0.486,-0.104 -0.347,-0.139 -0.177,0.242 -0.938,0.069 -0.069,0.278 C 69.451,14.53 68.612,14.52 67.974,14.52 A 39.892,39.892 0 0 0 64.94,13.13 l -0.44,1.121 c 0.837,0.339 1.656,0.718 2.467,1.116 -0.058,0.167 -0.126,0.295 -0.233,0.295 -0.252,0 -0.139,0.66 -0.139,0.66 0,0 0.666,0.019 0.868,0.069 0.201,0.05 0.173,0.556 0.173,0.556 0.758,-0.051 1.074,0.994 0.973,1.25 -0.101,0.256 0.312,0.243 0.312,0.243 0,0 -0.002,0.802 -0.104,1.007 -0.1,0.205 0.632,0.388 0.833,0.694 0.202,0.307 -0.092,1.303 -0.242,1.354 -0.152,0.051 0.396,0.23 0.347,0.486 -0.051,0.257 0.158,-0.027 0.208,0.382 0.051,0.409 0.174,1.285 0.174,1.285 l 0.694,0.07 c 0.103,-0.666 1.385,-0.702 1.598,-0.625 0.857,0.307 1.527,1.637 1.527,1.944 0,0.307 -0.556,0.347 -0.556,0.347 l 0.024,0.34 -1.781,1.781 c -0.18,-0.108 -0.361,-0.17 -0.465,-0.107 -0.252,0.153 -0.139,-1.076 -0.139,-1.076 0,0 0.457,-0.327 0.659,-0.174 C 71.9,26.3 69.984,23.6 69.58,23.855 c -0.403,0.256 -1.334,-0.233 -1.284,-0.694 0.05,-0.46 -1.806,-2.014 -1.806,-2.014 0,0 -0.343,-0.223 -0.556,-0.208 -0.071,0.005 -0.113,0.027 -0.139,0.104 -0.101,0.307 -0.303,0.507 0,0.66 0.302,0.154 0.237,-0.254 0.59,0.104 0.354,0.358 1.016,0.838 0.765,1.146 a 1.148,1.148 0 0 1 -0.556,0.382 l 0.347,0.417 h 0.556 l 0.104,0.868 c 0,0 0.611,0.302 0.764,0.66 0.102,0.241 0.109,0.417 0.075,0.574 a 30.174,30.174 0 0 0 -3.513,-2.312 0.707,0.707 0 0 0 0,-0.311 c -0.101,-0.358 0.408,-0.479 0.66,-0.069 l 0.485,-0.069 0.104,-0.452 -0.694,-0.555 h -0.556 c 0,0 -0.062,0.397 -0.417,0.243 -0.354,-0.154 -0.149,-0.087 -0.451,-0.139 -0.267,-0.045 -0.21,0.5 -0.159,0.772 A 29.956,29.956 0 0 0 61.515,21.853 30.333,30.333 0 0 0 50.599,19.607 V 15.11 c 0.319,0.004 0.473,-0.11 0.508,-0.247 0.05,-0.205 0.112,-0.262 0.416,-0.312 0.302,-0.051 -0.08,-0.676 -0.382,-0.625 -0.224,0.038 -0.429,-0.031 -0.542,-0.172 V 11.44 c 4.84,0.074 9.533,1.04 13.899,2.809 l 0.44,-1.121 A 39.682,39.682 0 0 0 50.598,10.235 V 1.218 Z M 37.262,23.714 a 29.047,29.047 0 0 1 12.134,-2.907 v 9.016 a 20.075,20.075 0 0 0 -7.947,1.893 l 0.554,1.058 a 18.886,18.886 0 0 1 7.394,-1.747 v 8.179 a 10.71,10.71 0 0 0 -3.033,0.622 h -0.045 l -0.035,-0.556 0.243,-0.174 -0.417,-0.139 -0.312,0.417 -0.069,0.452 -0.521,0.104 v 0.243 h -0.347 v 0.321 c -0.744,0.403 -1.438,0.887 -2.063,1.448 l -5.786,-5.786 a 18.926,18.926 0 0 1 4.993,-3.383 l -0.554,-1.058 a 20.26,20.26 0 0 0 -5.285,3.595 l -6.381,-6.381 a 29.129,29.129 0 0 1 7.477,-5.217 z m -1.95,12.449 a 20.31,20.31 0 0 0 -3.314,4.739 c -0.227,-0.006 -0.442,0.036 -0.506,0.209 -0.151,0.409 -0.799,0.312 -0.799,0.312 l -0.104,0.208 -0.521,0.104 -0.104,0.312 -0.59,0.07 1.528,-0.035 c 0.403,-0.051 -0.165,0.884 -0.417,0.833 l -0.695,0.035 -0.278,0.243 h -0.66 l -0.277,0.417 -0.972,-0.035 c 0,0 -0.537,0.437 -0.486,0.59 0.05,0.153 -0.126,0.625 -0.278,0.625 -0.151,0 -0.448,0.471 -0.347,0.625 0.102,0.153 -0.312,0.66 -0.312,0.66 l -0.069,0.521 -0.312,0.104 v 1.354 l -0.625,0.417 v 0.625 l -0.275,0.296 h -4.091 a 29.056,29.056 0 0 1 2.639,-11.565 29.14,29.14 0 0 1 5.484,-8.046 z m -10.938,14.739 -0.764,0.799 0.104,0.833 -0.452,0.14 -0.104,0.347 -0.174,1.076 0.486,0.069 c 0.251,-0.102 0.202,0.662 0,0.765 -0.203,0.102 -0.755,0.316 -0.452,0.521 0.303,0.206 -0.798,0.134 -0.798,-0.174 0,-0.306 -0.613,-0.553 -0.764,-0.451 -0.083,0.056 -0.197,-0.082 -0.286,-0.221 a 29.381,29.381 0 0 1 -0.365,-4.007 h 3.529 z M 10.236,49.394 H 1.219 A 48.537,48.537 0 0 1 6.19,28.504 48.8,48.8 0 0 1 15.079,15.93 l 6.388,6.388 a 39.887,39.887 0 0 0 -7.324,10.483 39.535,39.535 0 0 0 -3.907,16.593 z m 1.203,0 a 38.367,38.367 0 0 1 3.749,-16.028 38.571,38.571 0 0 1 7.119,-10.208 l 5.783,5.782 a 30.503,30.503 0 0 0 -5.688,8.323 30.188,30.188 0 0 0 -2.797,12.131 z m 9.505,25.952 h 0.201 c 0.251,-0.871 1.462,0.04 1.562,0.348 0.039,0.118 0.183,0.269 0.35,0.398 l -0.748,0.747 a 38.285,38.285 0 0 1 -1.365,-1.493 z m 7.987,-5.134 a 30.679,30.679 0 0 1 -1.188,-1.317 c 0.075,-0.325 0.276,-0.666 0.276,-0.666 0.655,-0.41 -0.174,-1.076 -0.174,-1.076 0.102,-0.615 -0.347,-1.319 -0.347,-1.319 -0.907,-0.614 -0.66,-1.806 -0.66,-1.806 V 63.229 C 26.082,62.513 27.15,62.396 27.15,62.396 27.503,61.783 26.907,61.32 26.907,61.32 L 26.838,60.66 26.04,60.556 25.936,58.16 24.131,55.556 c -0.354,-0.104 -0.104,-0.729 -0.104,-0.729 0.454,-0.256 -0.104,-0.868 -0.104,-0.868 l -0.035,-1.111 1.042,-0.104 0.243,-0.417 h 0.521 l -0.07,-1.354 c 0.091,-0.239 0.229,-0.34 0.368,-0.374 h 0.246 c 0.144,0.03 0.254,0.096 0.254,0.096 l 0.694,0.035 0.071,-0.131 h 2.407 l 0.195,1.311 -0.625,0.556 c -0.555,0.308 -0.571,1.026 0.035,1.181 0.403,0.05 0.258,1.014 -0.347,0.348 -0.664,0 -0.095,0.471 0.104,0.625 0.908,0.461 0.694,-0.417 0.694,-0.417 l 0.458,-0.367 c 0.194,1.01 0.46,1.998 0.803,2.958 a 20.09,20.09 0 0 0 4.323,7.045 z m 7.226,-7.227 a 18.894,18.894 0 0 1 -4.004,-6.489 18.791,18.791 0 0 1 -0.857,-3.299 c 0.423,0.159 0.89,0.851 0.89,0.969 0,0.154 2.014,0.035 2.014,0.035 0.555,0.358 0.764,1.285 0.764,1.285 0.556,-0.718 1.726,-0.063 0.868,0.347 0.806,0.512 0.799,0.973 0.799,0.973 0.656,-0.204 0.66,0.332 0.66,0.485 0,0.154 0.208,-0.764 0.208,-0.764 -0.757,-0.562 0.99,-0.781 0.486,0.243 l -0.278,0.451 0.486,0.417 0.07,1.181 c 1.11,-0.103 0.798,-1.493 0.798,-1.493 l 0.486,-0.104 c 0,-0.461 0.382,-0.208 0.382,-0.208 -0.243,-1.197 0.222,-1.709 0.539,-1.916 0.403,0.75 0.892,1.458 1.472,2.104 z m 0.857,0.859 5.783,-5.784 a 10.691,10.691 0 0 0 6.301,2.707 l -0.003,0.031 c 0,0 -0.192,0.444 0.035,0.521 0.22,0.073 0.17,0.125 0.271,0.234 v 0.022 l -0.132,0.264 c -0.187,-0.254 -0.287,0.163 -0.174,0.277 0.115,0.115 -0.278,0.055 -0.278,0.209 0,0.153 -0.114,0.236 0,0.312 0.114,0.076 -0.022,0.128 -0.173,0.242 -0.152,0.115 0.625,0.14 0.625,0.14 0,0 -0.154,-0.312 0.035,-0.312 l 0.097,0.002 v 0.498 C 49.334,63.19 49.272,63.181 49.2,63.158 v 0.382 l -0.417,0.035 0.347,0.416 0.271,0.023 v 0.899 c -0.04,0.63 -1.683,0.2 -1.833,0.05 l -0.035,0.902 -0.312,0.069 0.07,0.625 -0.07,0.868 0.556,-0.104 v 0.348 l 1.354,0.069 0.271,-0.29 v 0.985 l -0.931,0.104 -0.382,0.208 -0.173,-0.312 h -0.382 l -0.255,0.34 a 18.972,18.972 0 0 1 -3.495,-0.835 18.872,18.872 0 0 1 -6.77,-4.096 z m 13.591,16.553 a 30.355,30.355 0 0 0 4.172,-0.377 l 0.116,0.256 0.868,0.243 0.59,0.139 0.209,0.902 0.451,0.035 0.139,0.556 c 0.556,0.409 -0.139,1.284 -0.139,1.284 v 1.146 l 0.382,0.173 -0.035,0.417 0.66,0.66 0.764,0.069 1.237,1.326 a 38.358,38.358 0 0 1 -9.414,1.334 z m 20.121,2.078 v -0.462 c 0.908,-0.665 0.961,-1.843 0.104,-1.944 -0.65,-0.078 -0.362,-0.767 0.243,-0.868 l 0.348,-0.174 V 78.576 L 72.602,77.5 v -0.8 l -2.535,-2.118 c -0.52,-0.192 -0.541,-0.833 -0.35,-1.455 0.458,-0.391 0.916,-0.784 1.354,-1.205 l 2.221,2.22 c -0.101,0.381 -0.455,0.593 -0.655,0.44 0.078,0.087 0.278,0.312 0.348,0.451 0.1,0.204 0.418,0.204 0.521,0 0.067,-0.138 0.062,-0.385 0.081,-0.597 l 1.034,1.033 c -0.137,0.268 -0.269,0.537 -0.213,0.71 l 0.452,0.208 0.069,0.868 c 0.337,0.343 1.091,0.325 1.697,0.22 l 0.205,0.205 a 38.568,38.568 0 0 1 -6.105,4.795 z m 6.95,-5.658 -0.208,-0.208 C 77.437,76.054 77.392,75.311 77.392,75.311 L 77.115,75.033 77.08,73.749 c 0.176,-0.582 -0.686,-1.401 -0.973,-1.458 -0.041,-0.009 -0.056,0.008 -0.069,0.034 -0.101,0.204 -0.764,0.073 -0.764,0.278 0,0.203 -0.41,1.204 -0.208,1.562 0.013,0.024 0.008,0.037 0.017,0.058 l -3.167,-3.165 a 30.365,30.365 0 0 0 5.852,-8.673 h -0.001 a 30.283,30.283 0 0 0 2.626,-11.791 h 8.163 a 38.336,38.336 0 0 1 -3.622,15.705 h 0.001 a 38.712,38.712 0 0 1 -7.259,10.518 z"
           id="path18" />
        <path
           style="fill:url(#linearGradient74)"
           inkscape:connector-curvature="0"
           d="M 58.574,4.03 58.643,3.995 59.199,3.613 59.06,3.37 58.574,3.683 58.261,3.475 58.087,3.718 58.504,3.995 Z m 2.395,0.903 -0.277,-0.278 -0.209,0.208 0.348,0.382 0.103,0.105 0.105,-0.105 0.52,-0.416 -0.208,-0.244 z M 59.824,5.627 C 59.572,5.73 59.06,5.697 59.06,5.697 H 58.157 C 58.133,5.518 57.921,5.469 57.706,5.489 57.491,5.509 57.279,5.595 57.255,5.697 57.204,5.902 56.907,5.94 56.907,5.94 l -1.146,0.104 c -0.103,0.307 -0.713,0.517 -0.764,0.312 -0.111,-0.45 -0.762,0.559 -0.104,0.764 0.655,0.206 1.319,0 1.319,0 l 0.139,-0.312 2.535,0.069 c 0.203,-0.205 0.277,-0.521 0.277,-0.521 0,0 0.616,-0.207 0.868,-0.104 0.254,0.102 0.046,-0.727 -0.207,-0.625 z M 54.442,8.196 V 7.641 L 54.234,7.433 54.025,6.704 53.366,6.496 l -0.66,0.278 -0.694,0.451 -0.764,0.104 -0.382,0.451 1.597,0.174 0.312,0.486 1.146,0.104 0.764,0.798 c 0.657,0.205 0.82,-0.128 0.416,-0.486 z m 18.714,5.695 0.765,0.243 c 0,0 0.938,1.105 0.902,0.556 C 74.722,13.154 74,13.122 73.747,12.815 a 0.416,0.416 0 0 0 -0.312,-0.139 c -0.409,-0.008 -0.997,0.287 -0.938,0.59 0.049,0.256 0.255,0.522 0.659,0.625 z M 57.914,13.439 57.636,13.3 l -0.208,0.452 0.278,0.139 z m 1.562,0.868 -0.347,-0.277 c 0,0 -0.556,-0.055 -0.556,-0.208 0,-0.119 -0.27,0.356 -0.486,0.486 0.243,0.127 0.521,0.278 0.521,0.278 0.404,0 0.66,0.332 0.66,0.486 0,0.153 0.556,0.104 0.556,0.104 l 0.069,-0.382 z m -2.534,-0.104 h -0.069 l -0.522,-0.069 v 0.312 l 0.417,0.035 0.313,0.521 0.243,-0.174 -0.348,-0.556 z m 0.972,0.104 c 0.025,0.019 0.073,0.006 0.104,0 -0.091,-0.046 -0.176,-0.13 -0.208,-0.139 -0.042,-0.009 -0.028,0.04 0.104,0.139 z m -12.465,2.049 c 0.051,0.153 0.575,0.188 0.625,0.035 0.05,-0.154 0.245,-0.452 -0.208,-0.452 -0.454,0 -0.369,-0.262 -0.521,-0.417 -0.076,-0.076 -0.35,-0.113 -0.625,-0.104 -0.276,0.009 -0.54,0.048 -0.521,0.139 0.05,0.255 0.451,0.59 0.451,0.59 0,0 0.749,0.055 0.799,0.209 z m 12.049,-0.417 v 0.452 l 0.554,0.034 -0.138,-0.382 z m 5.728,4.896 c -0.252,0 -0.725,-0.316 -0.625,-0.521 0.102,-0.205 -0.868,-0.382 -0.868,-0.382 0,0 -0.857,-0.832 -0.556,-0.729 0.303,0.102 0.174,-0.347 0.174,-0.347 0,0 -0.612,0.085 -0.764,0.035 -0.152,-0.052 -0.104,-0.521 -0.104,-0.521 0,0 -0.352,-0.057 -0.521,-0.035 -0.057,0.007 -0.069,-0.004 -0.069,0.035 0,0.153 0.178,0.18 0.277,0.486 0.103,0.307 0.066,0.8 0.521,0.902 0.453,0.103 0.538,0.212 0.59,0.417 0.05,0.205 0.625,0.243 0.625,0.243 l 0.382,0.208 1.215,1.042 v -0.417 c 0,0 -0.025,-0.416 -0.277,-0.416 z m -30.901,-1.632 0.243,-0.208 -0.313,-0.313 -0.208,0.243 z m 9.409,9.305 -0.313,-0.278 -0.208,0.243 0.313,0.278 z m -0.66,0.521 c 0.303,0 -0.243,-0.347 -0.243,-0.347 0,0 -0.473,0.023 -0.556,-0.139 l 0.035,0.486 z m 32.429,-0.451 0.035,0.485 0.312,-0.034 -0.034,-0.486 z m 3.82,3.784 0.521,-0.173 c 0,0 0.028,-0.501 -0.174,-0.347 -0.201,0.153 -0.353,-0.364 -0.555,-0.312 -0.202,0.051 -0.285,-0.196 -0.486,-0.452 -0.203,-0.256 -0.164,-0.298 -0.417,-0.451 -0.126,-0.077 -0.208,-0.111 -0.277,-0.104 -0.069,0.006 -0.104,0.036 -0.104,0.139 0,0.205 0.241,0.299 0.139,0.556 -0.1,0.255 0.111,0.486 0.312,0.486 0.202,0 0.354,0.106 0.556,0.208 0.201,0.101 0.332,0.245 0.485,0.45 z m 1.424,3.229 c 0,0.153 0.312,-0.555 0.312,-0.555 -0.253,-0.205 -0.452,-0.694 -0.452,-0.694 0,0 -0.277,-0.697 -0.277,-0.799 0,-0.103 -0.334,-0.227 -0.486,-0.278 -0.151,-0.051 -0.416,-0.486 -0.416,-0.486 l -0.591,0.035 c 0.151,0.205 0.451,0.351 0.451,0.555 0,0.205 -0.095,0.365 0.209,0.417 0.302,0.051 0.49,-0.048 0.59,0.208 0.101,0.256 0.119,0.663 0.069,0.868 -0.051,0.205 0.026,0.521 0.278,0.521 0.252,0 0.313,0.055 0.313,0.208 z m -6.077,-2.326 -0.035,-0.313 -0.52,0.069 0.034,0.313 z m 0.278,0.069 h 0.312 v 0.243 h -0.312 z m -0.139,3.889 c 0,0 -0.626,0.168 -1.181,-0.139 -0.554,-0.307 0.107,-0.417 0.208,-0.417 0.103,0 0.55,-0.369 0.348,-0.625 -0.202,-0.256 0,-0.726 0,-0.521 0,0.205 0.558,0.327 0.659,0.174 0.101,-0.153 0.01,-0.61 -0.242,-0.764 -0.252,-0.154 0.444,-0.265 0.242,-0.521 -0.201,-0.257 -0.312,-0.556 -0.312,-0.556 0,0 -0.297,0.413 -0.902,0.208 0,0 -0.079,0.94 -0.382,1.146 h -0.729 c 0,0 0.162,0.263 0.312,0.417 0.152,0.154 0.493,0.456 0.14,0.66 -0.354,0.204 0.069,0.173 0.069,0.173 0,0 -0.067,1.057 -0.521,0.903 -0.453,-0.152 -0.59,0.559 -0.59,0.764 0,0.205 1.771,0.283 1.493,0 -0.152,-0.153 0.208,-0.486 0.208,-0.486 0,0 1.207,0.104 1.458,0.104 0.252,0 0.465,-0.057 0.312,-0.312 -0.151,-0.256 -0.59,-0.208 -0.59,-0.208 z m 0.729,-1.84 h 0.312 v 0.347 h -0.312 z m 0.972,0.312 -0.277,-0.139 -0.14,0.313 0.243,0.139 z m 5.903,4.409 c -0.252,-0.051 -0.139,-0.798 -0.139,-0.798 0,0 0.229,-0.972 -0.174,-0.972 -0.403,0 -0.096,-0.507 -0.347,-0.66 -0.253,-0.154 -0.108,-0.872 -0.209,-1.076 -0.101,-0.205 -0.094,-0.437 -0.347,-0.59 -0.031,-0.019 -0.054,-0.04 -0.069,-0.035 -0.113,0.036 0.098,0.604 -0.035,0.694 -0.151,0.103 -0.265,0.298 -0.417,0.451 -0.151,0.154 0.312,0.367 0.312,0.521 0,0.153 0.104,0.903 0.104,0.903 0,0 0.367,0.177 0.417,0.382 0.051,0.205 -0.014,0.608 0.139,0.66 0.15,0.051 0.449,0.247 0.347,0.451 -0.101,0.206 -0.104,0.625 -0.104,0.625 l 0.208,0.451 0.417,0.243 c 10e-4,0 0.15,-1.198 -0.103,-1.25 z m -14.028,-3.089 0.035,0.312 0.487,-0.069 -0.035,-0.313 z m -7.499,0.867 c 0,0.154 0.354,0.312 0.556,0.312 0.201,0 0.729,-0.417 0.729,-0.417 0,0 0.271,-0.71 0.069,-0.66 -0.201,0.051 -0.609,0.342 -0.659,0.035 C 59.554,37 59.39,36.98 59.233,36.98 c -0.157,0 -0.312,0.035 -0.312,0.035 l -0.798,0.104 -0.07,0.347 0.556,0.069 c -0.001,0 0.277,0.194 0.277,0.347 z m -3.091,-0.205 -0.104,-0.451 0.312,-0.072 0.104,0.451 z m 0.765,-0.107 1.11,-0.035 v -0.312 l -1.11,0.035 z m -8.368,-0.243 h 0.382 v 0.312 h -0.382 z m 2.535,0.347 0.347,0.07 0.069,-0.313 -0.347,-0.069 z m 1.006,0.209 -0.347,-0.035 0.03,-0.312 0.348,0.034 z m -4.027,-0.209 -0.347,-0.034 -0.069,0.312 0.381,0.035 z m 7.778,0.035 0.103,0.278 0.174,-0.07 -0.104,-0.277 z m 12.394,0.069 -0.173,0.347 0.278,0.14 0.174,-0.383 z m -15.762,0.174 h 0.416 v 0.278 h -0.416 z m -4.688,0.139 -0.416,-0.104 -0.07,0.312 0.382,0.104 z m -0.521,0.625 -0.034,-0.313 -0.313,0.07 0.07,0.312 z m 5.66,-0.278 v 0.347 h 0.312 l -0.035,-0.382 z m 15.624,0.174 c -0.252,0.051 -0.201,0.23 0,0.486 l 0.625,-0.069 c 0,0 0.449,-0.229 0.348,-0.382 -0.052,-0.077 -0.222,-0.104 -0.417,-0.104 -0.195,0 -0.43,0.043 -0.556,0.069 z m 12.673,5.173 0.035,-0.382 -0.278,-0.035 -0.07,0.382 z m -0.173,1.076 -0.278,-0.138 -0.139,0.312 0.277,0.139 z m -34.513,2.917 -0.555,-0.07 -0.104,0.244 h -0.244 l -0.069,0.416 h 0.313 l 0.034,0.313 -0.208,0.208 -0.07,0.243 -0.416,0.104 -0.903,0.868 -0.069,0.417 -0.243,0.381 -0.313,0.765 -1.041,0.034 -0.209,0.938 0.139,0.763 0.903,0.348 0.104,-0.521 0.313,-0.139 0.069,-0.521 0.174,-0.347 0.312,-0.347 0.104,-0.417 0.487,-0.312 0.624,-0.104 0.243,-0.313 0.105,-0.625 0.034,-0.451 0.208,-0.313 0.625,-0.243 v -0.972 h -0.312 z m 31.04,0.555 0.556,0.105 0.035,-0.313 -0.556,-0.104 z m -1.215,0.139 -0.173,0.07 -0.348,0.208 -0.347,-0.208 -0.138,0.277 0.381,0.243 0.07,0.07 0.104,-0.07 0.278,-0.173 0.035,0.104 0.312,-0.104 -0.104,-0.243 z m -21.735,5.035 c 0.253,0.154 0.673,-0.209 0.417,-0.382 -0.756,-0.513 -0.701,-1.171 -0.903,-1.632 -0.043,-0.1 -0.124,-0.195 -0.208,-0.208 -0.084,-0.014 -0.167,0.073 -0.243,0.277 v 0.659 c 0,0.001 0.685,1.132 0.937,1.286 z m -26.596,2.187 c 0.05,0.562 0.451,-0.348 0.451,-0.348 v -3.472 l -0.938,-0.104 0.069,0.348 h 0.243 c 0.403,0.717 0.069,2.465 0.069,2.465 0,0 -0.627,0.028 -0.729,-0.277 -0.1,-0.308 -0.341,0.679 -0.139,0.833 0.204,0.152 0.925,-0.008 0.974,0.555 z m 23.437,-1.528 c 0.108,0.447 0.11,-0.711 0.312,-0.659 0.201,0.051 0.034,-0.729 0.034,-0.729 l -0.902,0.66 c 0.453,0.051 0.503,0.525 0.556,0.728 z m 26.283,0.522 c -0.076,-0.23 -0.286,-0.33 -0.521,-0.312 -0.39,0.028 -0.833,0.334 -0.694,0.521 0.303,0.409 0.805,0.191 1.007,0.243 0.201,0.049 0.41,0.162 0.208,-0.452 z m -48.366,0.416 c -0.118,0 -0.208,0.09 -0.208,0.209 0,0.119 0.09,0.243 0.208,0.243 0.118,0 0.208,-0.124 0.208,-0.243 0,-0.119 -0.089,-0.209 -0.208,-0.209 z"
           id="path20" />
        <path
           style="fill:url(#linearGradient76)"
           inkscape:connector-curvature="0"
           d="m 28.297,57.604 0.104,-0.486 -0.347,-0.139 0.07,-0.764 0.277,-0.069 0.07,-0.347 -0.764,0.52 -0.521,-0.312 v 1.215 l 0.834,1.076 z m 18.819,-0.521 -0.451,0.035 0.069,0.729 0.278,0.243 0.555,0.174 c 0,0 0.784,-0.22 0.833,-0.833 l -1.181,-0.035 z m -18.611,1.84 -0.347,0.035 -0.034,0.417 0.381,0.069 z m 63.227,0.486 a 0.366,0.366 0 0 0 -0.174,-0.034 c -0.21,0.011 -0.451,0.114 -0.59,0.208 l 0.139,0.243 c 0.19,-0.131 0.464,-0.167 0.521,-0.139 a 0.231,0.231 0 0 1 -0.035,-0.035 l 0.312,-0.035 a 0.275,0.275 0 0 0 -0.173,-0.208 z m -62.879,0.695 c 0,-0.12 -0.09,-0.208 -0.208,-0.208 -0.118,0 -0.208,0.087 -0.208,0.208 0,0.119 0.09,0.209 0.208,0.209 0.118,0 0.208,-0.09 0.208,-0.209 z m 0.139,0.868 a 0.204,0.204 0 0 0 -0.208,0.208 c 0,0.12 0.09,0.209 0.208,0.209 0.118,0 0.243,-0.089 0.243,-0.209 0,-0.119 -0.125,-0.208 -0.243,-0.208 z m 18.853,1.493 c 0.226,-0.039 0.368,-0.135 0.556,-0.174 0.19,-0.039 0.272,-0.354 0.347,-0.659 0.076,-0.308 -0.069,-0.452 -0.069,-0.452 0,0 -0.185,0.308 -0.486,0 a 0.253,0.253 0 0 0 -0.139,-0.069 c -0.255,-0.012 -0.456,0.771 -0.556,0.973 0,-0.001 0.12,0.42 0.347,0.381 z m -20.207,-0.521 0.416,-0.07 v -0.347 l -0.416,0.07 z m 67.358,2.257 c -0.007,-0.085 -0.01,-0.227 -0.069,-0.348 l -0.278,0.139 c 0.034,0.068 0.028,0.139 0.035,0.209 0.008,0.089 0.019,0.212 0.104,0.277 0.055,0.041 0.127,0.05 0.209,0.035 l -0.035,-0.312 c 0.024,0.004 0.028,0.047 0.035,0.069 -0.006,-0.01 0.001,-0.043 -0.001,-0.069 z m -0.661,0.313 c 0.077,0.311 0.17,0.611 0.174,0.624 l 0.312,-0.104 a 3.615,3.615 0 0 1 -0.208,-0.591 z m -23.366,0.208 h 0.347 v 0.972 h -0.347 z m -10.763,0.52 -0.139,-0.243 -0.417,0.243 0.174,0.243 z m 32.707,0.451 c -0.024,0.241 0.039,0.543 0.277,0.591 l 0.069,-0.312 c -0.023,-0.021 -0.046,-0.131 -0.035,-0.243 z m -0.14,0.556 c -0.091,0.007 -0.238,0.105 -0.347,0.174 -0.303,0.192 -0.189,0.956 0,0.764 0.188,-0.19 0.412,0.02 0.451,-0.556 0.019,-0.288 -0.012,-0.388 -0.104,-0.382 z m -38.679,1.216 0.348,-0.556 -0.313,-0.104 -0.347,0.243 0.139,0.174 z m 26.18,2.916 0.486,0.035 0.034,-0.417 -0.486,-0.069 z m -0.382,0.625 -0.104,0.312 c 0.024,0.009 0.069,0.012 0.104,0.035 l 0.069,0.277 c -0.022,0.035 -0.05,0.047 -0.069,0.069 l 0.208,0.208 c 0.162,-0.18 0.216,-0.352 0.174,-0.521 -0.067,-0.258 -0.35,-0.369 -0.382,-0.38 z m -37.29,9.86 -0.312,0.243 -0.139,0.139 0.139,0.105 0.347,0.278 0.174,-0.278 -0.174,-0.139 0.139,-0.105 z m 3.889,4.41 0.243,-0.243 0.139,-0.138 -0.174,-0.105 -0.521,-0.243 -0.138,0.243 0.312,0.174 -0.104,0.103 z m -25.832,1.84 0.382,0.625 0.069,0.451 0.486,0.174 0.209,0.278 0.347,-0.173 -0.243,-0.695 -0.66,-0.555 z"
           id="path22" />
      </g>
    </g>
    <g
       id="g32"
       transform="matrix(1.4053887,0,0,1.4053887,189.41342,-169.63481)">
      <path
         id="path878"
         d="m -467.23903,503.41039 v -78.70805 h 14.67577 v 64.93414 h 33.28693 v 13.77391 z"
         style="fill:#12262a;stroke-width:8.1987524"
         inkscape:connector-curvature="0" />
      <path
         id="path876"
         d="m -387.7929,441.67507 c -8.14409,0 -14.18425,2.56809 -18.11965,7.70598 -3.99007,5.13788 -5.98366,13.09152 -5.98366,23.8592 0,10.76768 1.99359,18.7213 5.98366,23.85919 3.9354,5.13788 9.97556,7.70597 18.11965,7.70597 8.08946,0 14.12962,-2.56809 18.11969,-7.70597 3.99007,-5.13789 5.98366,-13.09151 5.98366,-23.85919 0,-10.76768 -1.99359,-18.72132 -5.98366,-23.8592 -3.99007,-5.13789 -10.03023,-7.70598 -18.11969,-7.70598 z m 0,11.55896 c 3.4435,0 5.93141,1.47404 7.46185,4.42561 1.53043,2.95154 2.2949,7.40782 2.2949,13.36559 v 4.42559 c 0,5.95777 -0.76447,10.41405 -2.2949,13.36559 -1.53044,2.95157 -4.01835,4.42562 -7.46185,4.42562 -3.44345,0 -5.93138,-1.47405 -7.46181,-4.42562 -1.53044,-2.95154 -2.29491,-7.40782 -2.29491,-13.36559 v -4.42559 c 0,-5.95777 0.76447,-10.41405 2.29491,-13.36559 1.53043,-2.95157 4.01836,-4.42561 7.46181,-4.42561 z"
         style="fill:#12262a;stroke-width:8.1987524"
         inkscape:connector-curvature="0" />
      <path
         id="path872"
         d="m -314.66167,432.98368 c 0,1.42112 -0.46463,3.14012 -1.39382,5.16246 -0.9292,2.02236 -2.43293,3.77548 -4.50995,5.25125 -2.89689,-1.14782 -6.2547,-1.72232 -10.08077,-1.72232 -7.10559,0 -12.60098,1.82884 -16.48173,5.49096 -3.88073,3.66211 -5.81941,8.69286 -5.81941,15.08788 0,7.26957 2.45823,12.68034 7.37748,16.23314 -2.62359,0.9292 -4.75673,2.29338 -6.39648,4.09711 -1.63975,1.80373 -2.45916,3.96212 -2.45918,6.47639 0,4.04473 1.61359,7.08186 4.83843,9.10423 -5.13789,2.84222 -7.70595,6.93929 -7.70595,12.29581 0,4.04473 1.28404,7.35205 3.85297,9.92098 2.56894,2.62362 5.73673,3.93734 9.50816,3.93734 h 22.13691 c 3.60746,0 6.88952,-0.76893 9.84107,-2.29936 3.00623,-1.53046 5.35461,-3.71407 7.04902,-6.5563 1.74907,-2.84225 2.62339,-6.09463 2.62339,-9.75675 0,-4.75527 -1.30927,-8.55245 -3.93286,-11.3947 -2.67828,-2.89689 -5.96037,-4.34571 -9.8411,-4.34571 h -20.90731 c -0.98384,0 -1.8285,-0.32952 -2.53907,-0.98543 -0.65591,-0.71057 -0.98543,-1.55966 -0.98543,-2.5435 0,-1.09318 0.38445,-1.96752 1.14968,-2.62341 0.7652,-0.71057 1.74938,-1.06534 2.95186,-1.06534 h 5.73955 c 7.21488,0 12.7355,-1.82884 16.56159,-5.49095 3.88075,-3.66212 5.81943,-8.66318 5.81943,-15.00355 0,-5.68445 -1.61357,-10.33075 -4.83841,-13.9382 6.50434,-1.96771 9.75673,-7.07862 9.75673,-15.33203 z m -15.98454,18.93644 c 2.84222,0 4.97091,0.87875 6.39204,2.62784 1.47578,1.8037 2.215,4.37179 2.215,7.70595 3e-5,3.2795 -0.73922,5.81791 -2.215,7.62164 -1.42113,1.80373 -3.54982,2.70773 -6.39204,2.70773 -2.73293,0 -4.84082,-0.904 -6.31659,-2.70773 -1.47578,-1.80373 -2.21059,-4.34214 -2.21059,-7.62164 0,-3.33416 0.73481,-5.90225 2.21059,-7.70595 1.47577,-1.74909 3.58366,-2.62784 6.31659,-2.62784 z m -7.21771,50.8345 h 16.06891 c 1.58509,0 2.92407,0.48988 4.01721,1.47372 1.03852,0.98387 1.55806,2.32282 1.55806,4.01723 0,1.69441 -0.57004,3.06305 -1.71786,4.10157 -1.20248,1.0385 -2.68095,1.55805 -4.43004,1.55805 h -15.49628 c -1.63975,0 -2.94902,-0.51955 -3.93286,-1.55805 -1.0385,-1.03852 -1.55807,-2.40716 -1.55807,-4.10157 0,-1.53043 0.51957,-2.8397 1.55807,-3.93288 1.09316,-1.0385 2.40243,-1.55807 3.93286,-1.55807 z"
         style="fill:#12262a;stroke-width:8.1987524"
         inkscape:connector-curvature="0" />
      <path
         inkscape:connector-curvature="0"
         id="path866"
         d="M -277.79546,504.80541 V 481 l -25.01468,-39.32493 h 16.08086 l 16.67643,27.68527 h 0.51052 l 16.50625,-27.68527 h 15.40021 L -262.56544,481 v 23.80541 z"
         style="fill:#12262a;stroke-width:7.480093" />
      <path
         id="path864"
         d="m -213.89817,441.67507 c -6.23104,0 -11.1772,1.529 -14.83931,4.58986 -3.71675,3.06087 -5.5753,7.10744 -5.5753,12.136 0,1.25714 0.0296,2.1018 0.0843,2.53907 h 13.4455 v -1.72232 c 0,-1.6944 0.57448,-3.16845 1.72229,-4.42559 1.14782,-1.25713 2.97666,-1.88654 5.49096,-1.88654 2.45961,0 4.12814,0.65466 5.00266,1.96645 0.87454,1.3118 1.30948,3.14505 1.30948,5.49537 v 6.31216 c -9.56521,0 -16.94435,1.61356 -22.13689,4.8384 -5.19255,3.22487 -7.78587,8.66087 -7.78587,16.31305 0,6.17639 1.58389,10.5525 4.75407,13.12146 3.17018,2.56893 6.61259,3.85297 10.32937,3.85297 3.77143,0 6.77888,-0.65909 9.01988,-1.97088 2.29566,-1.3118 4.39912,-3.30539 6.31216,-5.98366 h 0.57262 c 0.65588,2.45963 1.93993,4.39832 3.85297,5.81941 1.85839,1.42113 4.12662,2.13513 6.80487,2.13513 3.11554,0 5.82313,-0.60416 8.11879,-1.80663 v -9.75675 h -2.70775 c -0.92918,0 -1.69368,-0.3251 -2.29491,-0.981 -0.65591,-0.65591 -0.981,-1.66975 -0.981,-3.03623 v -29.75852 c 0,-5.73914 -1.69375,-10.14048 -5.08256,-13.20135 -3.38882,-3.06086 -8.52941,-4.58986 -15.41637,-4.58986 z m 6.64062,35.00534 v 3.44459 c 0,3.88075 -0.7348,7.05298 -2.21057,9.51262 -1.53043,2.45961 -3.82836,3.68875 -6.88923,3.68875 -2.29563,0 -3.98938,-0.59973 -5.08254,-1.80221 -1.09318,-1.14782 -1.64241,-2.81634 -1.64241,-5.00266 0,-3.55282 1.4785,-6.09566 4.43004,-7.62607 2.95155,-1.47579 6.74873,-2.21502 11.39471,-2.21502 z"
         style="fill:#12262a;stroke-width:8.1987524"
         inkscape:connector-curvature="0" />
    </g>
  </g>
</svg>
