<?xml version="1.0" encoding="UTF-8" standalone="no"?>
<svg
   xmlns:dc="http://purl.org/dc/elements/1.1/"
   xmlns:cc="http://creativecommons.org/ns#"
   xmlns:rdf="http://www.w3.org/1999/02/22-rdf-syntax-ns#"
   xmlns:svg="http://www.w3.org/2000/svg"
   xmlns="http://www.w3.org/2000/svg"
   xmlns:sodipodi="http://sodipodi.sourceforge.net/DTD/sodipodi-0.dtd"
   xmlns:inkscape="http://www.inkscape.org/namespaces/inkscape"
   data-v-fde0c5aa=""
   viewBox="0 0 300 300"
   class="iconLeftSlogan"
   version="1.1"
   id="svg32"
   sodipodi:docname="default.svg"
   inkscape:version="0.92.5 (2060ec1f9f, 2020-04-08)">
  <metadata
     id="metadata36">
    <rdf:RDF>
      <cc:Work
         rdf:about="">
        <dc:format>image/svg+xml</dc:format>
        <dc:type
           rdf:resource="http://purl.org/dc/dcmitype/StillImage" />
      </cc:Work>
    </rdf:RDF>
  </metadata>
  <sodipodi:namedview
     pagecolor="#ffffff"
     bordercolor="#666666"
     borderopacity="1"
     objecttolerance="10"
     gridtolerance="10"
     guidetolerance="10"
     inkscape:pageopacity="0"
     inkscape:pageshadow="2"
     inkscape:window-width="1920"
     inkscape:window-height="1018"
     id="namedview34"
     showgrid="false"
     showguides="false"
     inkscape:zoom="4.4500587"
     inkscape:cx="179.62821"
     inkscape:cy="135.27466"
     inkscape:window-x="0"
     inkscape:window-y="34"
     inkscape:window-maximized="1"
     inkscape:current-layer="svg32" />
  <!---->
  <defs
     data-v-fde0c5aa=""
     id="defs2">
    <!---->
  </defs>
  <rect
     data-v-fde0c5aa=""
     fill="#EDF2F3"
     x="0"
     y="0"
     width="300px"
     height="300px"
     class="logo-background-square"
     id="rect4" />
  <defs
     data-v-fde0c5aa=""
     id="defs6">
    <!---->
  </defs>
  <path
     style="fill:#12262a;stroke-width:3.6074512"
     d="m 136.87768,152.71627 v -34.63154 h 6.45734 v 28.57102 h 14.64625 v 6.06052 z"
     id="path878" />
  <path
     style="fill:#12262a;stroke-width:3.6074512"
     d="M 171.83398 125.55273 C 168.25058 125.55273 165.59291 126.68269 163.86133 128.94336 C 162.1057 131.20403 161.22852 134.70363 161.22852 139.44141 C 161.22852 144.17919 162.1057 147.67878 163.86133 149.93945 C 165.59291 152.20012 168.25058 153.33008 171.83398 153.33008 C 175.39334 153.33008 178.05101 152.20012 179.80664 149.93945 C 181.56227 147.67878 182.43945 144.17919 182.43945 139.44141 C 182.43945 134.70363 181.56227 131.20403 179.80664 128.94336 C 178.05101 126.68269 175.39334 125.55273 171.83398 125.55273 z M 171.83398 130.63867 C 173.34912 130.63867 174.4438 131.28725 175.11719 132.58594 C 175.79058 133.88462 176.12695 135.84538 176.12695 138.4668 L 176.12695 140.41406 C 176.12695 143.03548 175.79058 144.99624 175.11719 146.29492 C 174.4438 147.59361 173.34912 148.24219 171.83398 148.24219 C 170.31886 148.24219 169.22417 147.59361 168.55078 146.29492 C 167.87739 144.99624 167.54102 143.03548 167.54102 140.41406 L 167.54102 138.4668 C 167.54102 135.84538 167.87739 133.88462 168.55078 132.58594 C 169.22417 131.28725 170.31886 130.63867 171.83398 130.63867 z "
     id="path876" />
  <path
     style="fill:#12262a;stroke-width:3.6074512"
     d="M 204.01172 121.72852 C 204.01172 122.35381 203.80728 123.11017 203.39844 124 C 202.98959 124.88984 202.32795 125.66121 201.41406 126.31055 C 200.13943 125.80551 198.66199 125.55273 196.97852 125.55273 C 193.85206 125.55273 191.43409 126.35742 189.72656 127.96875 C 188.01904 129.58008 187.16602 131.79361 187.16602 134.60742 C 187.16602 137.80603 188.24764 140.18677 190.41211 141.75 C 189.25773 142.15885 188.31915 142.75909 187.59766 143.55273 C 186.87617 144.34637 186.51563 145.29606 186.51562 146.40234 C 186.51562 148.18202 187.2256 149.51836 188.64453 150.4082 C 186.38386 151.65878 185.25391 153.46149 185.25391 155.81836 C 185.25391 157.59804 185.81889 159.05326 186.94922 160.18359 C 188.07955 161.33798 189.47338 161.91602 191.13281 161.91602 L 200.87305 161.91602 C 202.46033 161.91602 203.90444 161.57769 205.20312 160.9043 C 206.52586 160.2309 207.55915 159.27011 208.30469 158.01953 C 209.07428 156.76894 209.45898 155.33789 209.45898 153.72656 C 209.45898 151.63424 208.8829 149.96348 207.72852 148.71289 C 206.55008 147.43826 205.10596 146.80078 203.39844 146.80078 L 194.19922 146.80078 C 193.76633 146.80078 193.39468 146.65579 193.08203 146.36719 C 192.79343 146.05454 192.64844 145.68094 192.64844 145.24805 C 192.64844 144.76705 192.8176 144.38234 193.1543 144.09375 C 193.49099 143.7811 193.92403 143.625 194.45312 143.625 L 196.97852 143.625 C 200.15307 143.625 202.58214 142.82031 204.26562 141.20898 C 205.97315 139.59765 206.82617 137.39718 206.82617 134.60742 C 206.82617 132.10626 206.1162 130.06189 204.69727 128.47461 C 207.55918 127.60882 208.99023 125.36002 208.99023 121.72852 L 204.01172 121.72852 z M 196.97852 130.06055 C 198.2291 130.06055 199.16572 130.4472 199.79102 131.2168 C 200.44036 132.01043 200.76562 133.14039 200.76562 134.60742 C 200.76563 136.0504 200.44036 137.1673 199.79102 137.96094 C 199.16572 138.75458 198.2291 139.15234 196.97852 139.15234 C 195.77603 139.15234 194.84856 138.75458 194.19922 137.96094 C 193.54988 137.1673 193.22656 136.0504 193.22656 134.60742 C 193.22656 133.14039 193.54988 132.01043 194.19922 131.2168 C 194.84856 130.4472 195.77603 130.06055 196.97852 130.06055 z M 193.80273 152.42773 L 200.87305 152.42773 C 201.57049 152.42773 202.15964 152.64328 202.64062 153.07617 C 203.09757 153.50907 203.32617 154.09821 203.32617 154.84375 C 203.32617 155.58929 203.07535 156.19149 202.57031 156.64844 C 202.04122 157.10538 201.39069 157.33398 200.62109 157.33398 L 193.80273 157.33398 C 193.08124 157.33398 192.50516 157.10538 192.07227 156.64844 C 191.61533 156.19149 191.38672 155.58929 191.38672 154.84375 C 191.38672 154.17036 191.61533 153.59428 192.07227 153.11328 C 192.55326 152.65634 193.12934 152.42773 193.80273 152.42773 z "
     id="path872" />
  <path
     style="fill:#12262a;stroke-width:3.29124093"
     d="M 220.23285,153.33008 V 142.8557 l -11.00646,-17.30297 h 7.07558 l 7.33763,12.18152 h 0.22463 l 7.26275,-12.18152 h 6.77609 l -10.96901,17.30297 v 10.47438 z"
     id="path866"
     inkscape:connector-curvature="0" />
  <path
     style="fill:#12262a;stroke-width:3.6074512"
     d="M 248.34766 125.55273 C 245.606 125.55273 243.42969 126.22549 241.81836 127.57227 C 240.18299 128.91905 239.36523 130.69954 239.36523 132.91211 C 239.36523 133.46525 239.37828 133.8369 239.40234 134.0293 L 245.31836 134.0293 L 245.31836 133.27148 C 245.31836 132.52594 245.57113 131.87736 246.07617 131.32422 C 246.58121 130.77108 247.3859 130.49414 248.49219 130.49414 C 249.57442 130.49414 250.30857 130.78219 250.69336 131.35938 C 251.07816 131.93657 251.26953 132.7432 251.26953 133.77734 L 251.26953 136.55469 C 247.06084 136.55469 243.81402 137.26466 241.5293 138.68359 C 239.24458 140.10253 238.10352 142.49437 238.10352 145.86133 C 238.10352 148.57894 238.80043 150.50443 240.19531 151.63477 C 241.59019 152.7651 243.10485 153.33008 244.74023 153.33008 C 246.39966 153.33008 247.72294 153.04008 248.70898 152.46289 C 249.71907 151.8857 250.64459 151.00852 251.48633 149.83008 L 251.73828 149.83008 C 252.02687 150.91232 252.59185 151.76534 253.43359 152.39062 C 254.25128 153.01592 255.2493 153.33008 256.42773 153.33008 C 257.79857 153.33008 258.98991 153.06425 260 152.53516 L 260 148.24219 L 258.80859 148.24219 C 258.39975 148.24219 258.06337 148.09915 257.79883 147.81055 C 257.51023 147.52195 257.36719 147.07586 257.36719 146.47461 L 257.36719 133.38086 C 257.36719 130.85564 256.62194 128.91905 255.13086 127.57227 C 253.63978 126.22549 251.37792 125.55273 248.34766 125.55273 z M 251.26953 140.95508 L 251.26953 142.4707 C 251.26953 144.17823 250.94622 145.57401 250.29688 146.65625 C 249.62349 147.73848 248.6124 148.2793 247.26562 148.2793 C 246.25554 148.2793 245.51029 148.01542 245.0293 147.48633 C 244.5483 146.98129 244.30664 146.24714 244.30664 145.28516 C 244.30664 143.72192 244.95718 142.60307 246.25586 141.92969 C 247.55454 141.28034 249.2253 140.95508 251.26953 140.95508 z "
     id="path864" />
  <defs
     data-v-fde0c5aa=""
     id="defs16">
    <linearGradient
       data-v-fde0c5aa=""
       gradientTransform="rotate(25)"
       id="39b4e5af-ff61-4a1e-b2d6-6cfaa59b0551"
       x1="0%"
       y1="0%"
       x2="100%"
       y2="0%">
      <stop
         data-v-fde0c5aa=""
         offset="0%"
         stop-color="#20484F"
         stop-opacity="1"
         id="stop11" />
      <stop
         data-v-fde0c5aa=""
         offset="100%"
         stop-color="#4E9BAB"
         stop-opacity="1"
         id="stop13" />
    </linearGradient>
  </defs>
  <g
     data-v-fde0c5aa=""
     id="0220a3c0-75f1-4044-ac1e-42991a93bf7b"
     stroke="none"
     fill="url(#39b4e5af-ff61-4a1e-b2d6-6cfaa59b0551)"
     transform="matrix(0.838810384273529,0,0,0.838810384273529,40.00001599903795,108.05949816518977)">
    <g
       id="g24">
      <path
         d="M93.917 71.206a48.9 48.9 0 0 1-9.019 12.835l-6.358-6.357a39.821 39.821 0 0 0 7.479-10.792h-.001c2.37-5.044 3.657-10.572 3.743-16.298h9.015a48.519 48.519 0 0 1-4.859 20.612l1.09.593c3.259-6.713 4.989-14.126 4.989-21.808 0-6.533-1.253-12.87-3.631-18.75a49.874 49.874 0 0 0-11.014-16.604A49.904 49.904 0 0 0 68.677 3.595l-.002.005A49.927 49.927 0 0 0 49.998 0 49.67 49.67 0 0 0 27.63 5.302l.55 1.052a48.527 48.527 0 0 1 21.216-5.135v9.017a39.515 39.515 0 0 0-17.025 4.128l.547 1.049a38.375 38.375 0 0 1 16.478-3.974v8.164a30.216 30.216 0 0 0-12.685 3.059l.263.502-.263-.503a30.553 30.553 0 0 0-7.77 5.428l-5.783-5.782a38.53 38.53 0 0 1 9.759-6.894l-.547-1.049a39.968 39.968 0 0 0-10.051 7.104l-6.388-6.387a48.824 48.824 0 0 1 12.248-8.727l-.55-1.052A50.321 50.321 0 0 0 5.144 27.939l.565.305-.565-.305A49.677 49.677 0 0 0 0 49.996c0 4.841.691 9.571 2.012 14.092l1.181-.297a48.942 48.942 0 0 1-1.974-13.192h9.015a39.857 39.857 0 0 0 1.705 10.989l1.169-.294a38.653 38.653 0 0 1-1.67-10.695h8.164c.023 1.202.136 2.388.297 3.562-.573.063-1.116.249-1.116.249l-.243.834c-.554.102-.902 1.007-.902 1.007-.454.153-.811.714-.66.868.151.153-.278.208-.278.208v1.146l-.243.348.069 1.215c.303 0 .243.59.243.59-.504.052-.417.695-.417.695l-1.042.382-.208.277-1.319-.034-.339.338c-.11-.328-.231-.654-.333-.987l-1.169.295c.036.12.081.235.119.354h-1.506l-.104-.243-.486-.104-.069-.59-.764.069-.139.312-.799.034c.051.513-.803 1.28-.902 1.076-.102-.205-.669-.766-.417-.867.252-.104.903-.209.903-.209v-.347l-1.84-.069-.208.312-.764.069v.798l-.347.104c-.252.153.035.729.035.729.354.357-.035.902-.035.902-.303.308.243.903.243.903.404.102-.243.382-.243.382.099.513.381.66.381.66-.304.513.208.799.208.799l.069.868.347.208v.556l.208.347h.799l-.07-1.284c-.706-.819.608-1 .66-.694.051.307.625.451.625.451.101.769.964 1.219 1.215.451.252-.768.439-.288.59.069.151.358 1.111 1.216 1.111 1.216h.764l.104.729c.857-.052 1.105.039 1.458 1.216.354 1.176 1.319 1.493 1.319 1.493l.694-.07c0-.612.694.11.694.417 0 .306 1.354 1.493 1.354 1.493l1.389.312.286.229a40.416 40.416 0 0 0 2.63 3.017l-6.375 6.376C9.441 78.284 5.411 71.347 3.196 63.793l-1.181.297c2.324 7.952 6.611 15.241 12.632 21.262a50.082 50.082 0 0 0 13.792 9.781l.598-1.062a48.779 48.779 0 0 1-13.103-9.155l6.375-6.374a39.746 39.746 0 0 0 11.175 7.647l.595-1.055a38.594 38.594 0 0 1-10.918-7.444l1.18-1.179c.062.113.114.252.138.432.1.768.451.625.451.625l2.882-.069 1.007-.868 2.569-.035c1.312-.051.495-1.875.243-1.875-.151-.118-.176-.363-.151-.635a30.22 30.22 0 0 0 6.63 3.904l.595-1.054c-2.825-1.186-5.448-2.846-7.81-4.897l-1.079-.997 6.347-6.347a20.086 20.086 0 0 0 7.018 4.314c.706.253 1.43.451 2.163.624-.129.114-.201.221-.171.296.101.256-.417.521-.417.521l-.452.139-.312.452-.59.208-.104 1.076-.312.208v.452l-.347.104v.278l-.521.034.312.764.417.209c.706.102.382.972.382.972l.417.069.208.556.382.799c.152.615.631.468.833.417.202-.05.382.625.382.625l2.014.034s-.075.211.278.312c.195.057.978.117 1.66.136v.899a29.066 29.066 0 0 1-10.694-2.252l-.595 1.055a30.295 30.295 0 0 0 11.289 2.401v8.164a38.413 38.413 0 0 1-15.319-3.422l-.595 1.055a39.61 39.61 0 0 0 15.914 3.572v9.015c-7.161-.086-14.071-1.709-20.36-4.706l-.599 1.062C35.088 98.318 42.416 100 50.003 100c7.958 0 15.627-1.86 22.528-5.352l-.569-1.104a48.446 48.446 0 0 1-21.356 5.237v-9.015a39.72 39.72 0 0 0 10.698-1.632l.881.267.278.833.382-.069.312-.243 1.215-.069.591-.556.659-.104 4.713-4.009a39.824 39.824 0 0 0 7.359-5.637l6.358 6.358a49.015 49.015 0 0 1-12.09 8.639l.57 1.104a50.125 50.125 0 0 0 12.823-9.292 50 50 0 0 0 9.654-13.546l-.003-.01-1.089-.594zm-17.226-9.407a29.292 29.292 0 0 1-5.587 8.34c-.101-1.023-.344-2.153-.344-2.153l-.382-.208.104-1.216h-.556l-.903 1.181-.109.315-.521-.521.249-.281-.034-.59.347-.312v-.521l.312-.104.035-1.111.277-.069v-2.465l-.764-.694c-.05.256-.868.243-.868.243s-.195.347-.347.347.206.49.104.799c-.1.306-.521.277-.521.277l-.764.209-.174.277h-.833l-.052-.494c.065-.078.135-.153.2-.232l.685-.211.486-.243.243-.521c.05-.511.659-.451.659-.451s1.166-.964 1.216-1.424c.052-.461.475-1.771 1.181-1.771h1.284c.504-.205.382-.868.382-.868l.625-.104.104.382s.907.085 1.007-.069c.102-.152.303-.501.556-.347.251.153 1.076-.348 1.076-.348.05-.358 1.319-.208 1.319-.208l.139-.486s-.854-1.146-1.007-1.146c-.151 0-.975-.742-1.076-.486-.807-.204-.729-1.319-.729-1.319l-.312-.729c0-.41-.751-1.282-.902-1.18-.314-.234-.396-.479-.378-.69h7.068a28.974 28.974 0 0 1-2.495 11.202zm-27.596-8.778l.208-.243-.104-.347c-.404-.154-.218-.519.035-.417.252.103-.347-.451-.347-.451-.302.256-.556-.312-.556-.312h-.764v-.729l-.104-.659-.729-.347-.556.484-.104.729v.451l-.521.104-.104 1.389-.382.173.035.486-.556.174-.556.139-.104.66-.382.277-.208.591-.239 1.471a9.606 9.606 0 0 1-1.735-2.512c.089-.359.099-.695.099-.695-.453-.204-.192-.927.312-.312.504.613-.312-1.216-.312-1.216l-.417-.347-.498-.066a9.679 9.679 0 0 1-.127-1.5c0-.213.018-.424.031-.636.146-.127.315-.055.315-.055l.278.243.486.347.035.312-.312.174-.035.417.139.556h.417c.151-.819 1.191-.825 1.493-.312l.312-.729c-.706-.358.006-.916.208-.66.202.256.66-.66.66-.66s.095.1.139.139a1.814 1.814 0 0 0-.139-.277c-.354-.615.243-.938.243-.938-.1-.614.66-.521.66-.521l.035-.798-.695-.07c-.15.717-.754.119-.451-.035s.59-.486.59-.486v-.486l.312-.104.069-.521h.731l.66-.312.174-.243.694-.07 1.007-.903-.104-.417c-.605 0 0-.451 0-.451l.104-.764h-.556l-.099-1.089a9.613 9.613 0 0 1 2.116-.262l.101 1.213-.556-.174h-.347l-.173-.312-.278-.035v1.111l.278.243.278.277.486.035.104.625 1.25.035.173.277.765.035 1.458 1.493-.104.452-.243.173c.103.358-.659.139-.659.139v.312l.347.035.348.208.521-.868c.555-.358.781.144.833.451.051.307-.242.278-.242.278v.694l.312.104c.505.614-.209.972-.209.972l-.139.521c-.152.46-.729.347-.729.347l-.208.312-.59.174 1.18.139c.114-.41.438-.518.591-.312.151.205.139.59.139.59l.312.035-.069.555.312.104v1.632l.348.417c.604-.255.616.143.312.347-.301.204-.104 1.146-.104 1.146l-.243.243v.417l-.312.208v.556c-.505-.256-1.098-.154-1.25 0-.453-.307-1.424-.187-1.424.069.302.41-.347.486-.347.486l-.348.417c.253.512-.243.556-.243.556v.972l-.627.591.046.888a9.537 9.537 0 0 1-7.296-2.356.242.242 0 0 0 .097-.093c.252-.409.66-.452.66-.452l.139-.347 1.354.034c.101-.563.764-.359.764-.104s.521.069.521.069l.347-.556h.556l.035-.625.278-.174v-.902c.807-.255.694-1.041.694-1.041zm-19.222-4.288c-.081.157-.152.26-.152.26-.059.089-.09.238-.108.4h-1.915l.009-.053-.556-.035c-.605-.359-.312-1.701-.312-1.701.958-1.434 2.083-.625 2.083-.625l.694-.035c.187.126.294.274.372.428-.058.449-.087.905-.115 1.361zm10.75-6.788c-.202.46-.694-.069-.694-.069-.1-.307-.833 0-.833 0 0 .563-.938-.243-.938-.243l-1.771-1.285c-1.009-.921-2.52.265-2.569.521.027.387-.318.394-.643.32a18.996 18.996 0 0 1 2.982-4.181l4.955 4.955-.489-.018zm-2.257 9.409l.173-.312.092-.443h.573c.02.365.063.726.119 1.081l-.333.091-.104-.208-.139.556h-.903l-.035-.625.557-.14zm22.71-28.381a28.986 28.986 0 0 1 6.872 4.008c.052.357.452.52.452.52l.192.017c.183.151.357.312.536.468v.384c.353-.089.896.313.994.656l-6.283 6.284a20.163 20.163 0 0 0-6.059-3.942 20.138 20.138 0 0 0-7.18-1.542v-9.015c3.65.073 7.188.815 10.476 2.162zm-7.19 37.443l.243.104-.451.347-.417.452-.486-.14-.625-.069-.173-.347-.383-.035-.034.694-.243.312-.625.625c.643 0 .217.349-.087.491v-2.056a10.916 10.916 0 0 0 1.916-.281c.068.063.115.109.115.109h.451l.02-.269c.236-.07.47-.152.7-.238.011.145.079.301.079.301zm3.454-27.927a18.93 18.93 0 0 1 5.647 3.672l-.329.33c-.171-.162-.717-.269-.717-.448 0-.154-.262-.326-.383-.278-.04.016-.082.062-.069.139.05.307-.349.449-.451.347-.1-.103-.417.312-.417.312 0 .153-.093.365.209.417.304.05.853-.203.902.104.018.104.034.193.057.275l-1.967 1.967a3.297 3.297 0 0 1-.555-.02c-.151.461-.861-.04-.66-.347.202-.307.209-.521.209-.521l-.243-.035-.312.556c-.706 0-.916.403-.764.66.151.255-.176-.045-.278.312-.1.358.045.367.348.521.303.154-.167.161.034.417.132.167.428.114.525.153l-.371.371c-.347.116-.744.031-.744.031-.011.105-.074.178-.158.23a10.781 10.781 0 0 0-2.651-1.615c.156-.118.425-.1.553-.456.203-.563.277-1.493.277-1.493s-.208-.019-.416 0c-.209.019-.392.081-.417.208-.05.256-.556.417-.556.417s-.43.142-.277.347c.151.205-.278.312-.278.312s.021.138.003.27a10.81 10.81 0 0 0-2.49-.437V31.03c2.35.074 4.624.573 6.739 1.459zm5.33 7.303c-.352.668-1.121-.069-1.08-.541l1.323-1.325c.08.009.162.026.243.026.302 0 .972-.104.972-.104s.277.04.517.105c.243.294.479.591.702.896l-.628-.099-.382-.035-.764-.069c-.756.513-.903 1.146-.903 1.146zm-8.88 19.041c-.296.128-.6.242-.91.34v-1.117l.486-.556c.526-.177.452.938.424 1.333zm7.525 7.883c.029-.02.062-.037.091-.058l1.195.598c.152.204.799.174.799.174l.208.243s.407-.065.66.243c.251.307 1.562.069 1.562.069l.347.312.556.208.941.021.576.577c-.908.423-2.756.285-2.872.166-.151-.153-1.215-.625-1.215-.625s-.785-.656-.938-.451-.868-.258-.868-.104c0 .153-.659-.348-.659-.348l-1.007-.382.764-.139-.14-.504zM65.9 40.139c.151.769.399 1.077-.104 1.077-.506 0-.625-.417-.625-.417s-.382-.135-.382.069c0 .205-.152.594 0 .798.15.205-.23.536-.382.382-.149-.153-.553-.645-.451-.798.1-.154-.703-1.097.104-1.25.808-.153-.025-.627.278-.729l.382-.208h.416l.227-.193c.198.272.389.549.571.832a.78.78 0 0 0-.034.437zM51.109 65.624l1.146-.243c.1-.512.625.104.625.104.505-.052.59.277.59.277l.66.104c.554.154.21.215.243.417.05.306.312.208.312.208l.104-.659.312.034-.312-.347-.555-.243-.591-.278c-.403-.562.083-.434.486-.382h.659s.765.994.765 1.25.347.314.347.314l.451-.034.14.347h.451l.174.312h.902l.034-.451-.833-.174-.069-.486-.59-.173c-.202-.869.13-1.14.382-.729l.312.069-.104-.764.348-.104-.104-1.076-.277-.104v-.347l1.249.034c-.1-.666.07-.972.07-.972h.347l.035.277 1.562.14h.069c.605.357.306.8.104.902-.201.102-.555.104-.555.104l-.104.208-1.319.104-.104.521c-.655-.104-.916.614-.764.972.151.358 0 .66 0 .66l.556.277.729-.208c.103-.512.534-.632.938-.938.404-.307 1.07.562.868.973l-.057.124a18.934 18.934 0 0 1-2.435 1.423 18.904 18.904 0 0 1-4.253 1.457c-.017-.011-.026-.019-.026-.019l-.556-.174-.034-.764c-.102-.512-1.058-.497-1.007-.139.049.349-1.728.152-1.823.141v-1.407l.502-.538zm-.504 12.364c.332-.245 1.279-.259 1.719.066.554.408 1.319.173 1.319.173l.537.665c-1.172.17-2.363.276-3.575.301v-1.205zm22.48-28.599c.063-.088.105-.152.105-.152l.243-.694.868-.278.104-.66-.451-.035s.511-.938.764-.938 1.899-.002 2.049-.104c.152-.102.451-.923.451-1.076s.406-.191.556-.243c.152-.05.524-.455.625-.66.101-.206-.25-1.49-.451-1.285-.202.205-.66.312-.66.312l-.173.556-.243.208s.05.162 0 .521c-.05.358-.486.556-.486.556l-.208.243s-1.209.065-1.354 0c-.453-.205-.164-.815.139-.764.302.052-.034-.868-.034-.868l.382-.035s.057-.937.208-.937c.152 0-.041-.298-.243-.452-.201-.153-.458-.676-.659-.625-.202.051-1.007 0-1.007 0l-.174.312-.556.104s.062.405-.035.521c-.304.358-1.476 1.105-.972-.173l.174-.312v-.452l-.903-.035s-.451-.177-.451-.382-.069-.452-.069-.452l-1.042-1.18-1.284-.139-.104-.277-.729-.104a1.911 1.911 0 0 0-.363-.137 20.346 20.346 0 0 0-1.132-1.624 1.726 1.726 0 0 1-.033-.114c-.045-.183-.613-.976-.912-.993-.114-.128-.215-.266-.333-.391l6.273-6.272c.211.193.182.27.458.47a.621.621 0 0 0 .273.117c.169.187.338.375.501.565l-.115.151c0 .579.27.414.539.361.086.104.175.208.259.313.024.34.031.816.557.749h.013c.66.888 1.27 1.807 1.821 2.757l.006.021h.006c.087.149.17.3.254.451-.099.104-.155.209-.155.209l-.833.104v.833l-.383.139.035.521.556-.069s.021.637.174.382c.151-.256 1.387.045 1.284.66-.041.252 1.263.917 1.111 1.736a.71.71 0 0 1 .241.083c.243.703.463 1.413.652 2.135l-.095.178s.072.042.169.128c.169.674.321 1.352.441 2.039-.049.525-.175 1.01-.438 1.166-.605.358.035.139.035.139l-.104 1.146c.152.512.404.256.556 0 .08-.136.166-.213.259-.292.076.768.133 1.54.149 2.32h-6.106zm6.911-4.736c-.15-.153.174-.868.174-.868s.202-.424 0-.833c-.201-.41.021-.871.174-1.076l-.382-.208-.417-.035-.305.047c-.091-.319-.202-.631-.303-.947l.018-.038.243.069v-.312l-.398-.124a37.336 37.336 0 0 0-.19-.564l-.072-1.117-.347-.243.104-.417-.416-.139.208-.694-.347-.694h-.514a30.203 30.203 0 0 0-.765-1.444.8.8 0 0 1 .201-.083c.278-.077.386-.11.417-.104l-.035-.521-.451-.312-.174-.625s-.535.11-.485.417c.012.073-.03.129-.104.175a32.055 32.055 0 0 0-1.108-1.665c.011-.024.02-.049.032-.073.202-.358.11-.592-.243-.694-.354-.103-.352-.076-.451-.486-.1-.409-.521-.521-.521-.521l-.139-.625-.38.24c-.195-.225-.398-.444-.601-.664l.183-.583a.46.46 0 0 1-.352-.297l1.573-1.574c.704.414 1.226 1.38 1.139 1.559-.101.205.591.139.591.139.102-.922.957-.62 1.007-.312.052.307.208.972.208.972l.243.486.382.347.556-.07.139.312.66.104s.54.61.59.764c.051.153.805.123 1.007.174s.506.196.556.451c.051.256.382.66.382.66s.574.177.625.382c.05.205.312.66.312.66l.521.417.035.451.556.035.139.625.938-.069.486-.347c.152-.083.293-.171.423-.261.184.419.368.838.536 1.263a38.484 38.484 0 0 1 2.705 13.629h-8.163c-.028-1.429-.183-2.833-.404-4.221.051-.23.087-.435.004-.518zm15.253-12.932a48.688 48.688 0 0 1 3.528 17.667h-9.016a39.7 39.7 0 0 0-2.802-14.104 37.303 37.303 0 0 0-.812-1.886c.075-.278.217-.582.549-.48.504.154.174-1.111.174-1.111s-.709-.507-.659-.764c.05-.255-.71-.767-.66-.972s-.64-.628-.59-.833-.382-.764-.382-.764l-.729-.729-.104-.451-.625-.07-1.215-1.458.069-.417-.347-.07v-.555l-.348-.208-.556-.035-1.111-1.25-.104-.556h-.556l.085-.873 5.875-5.876a48.632 48.632 0 0 1 10.336 15.795zM50.6 1.218a48.704 48.704 0 0 1 17.635 3.515l.002-.005a48.646 48.646 0 0 1 15.826 10.346l-5.402 5.403c-.193.049-.396.073-.539.011-.354-.153.173-.521.173-.521v-.417l-.312-.312s-.853.119-.902-.035c-.05-.154-.208-.833-.208-.833l-.035-.868-.347-.139-.07-.312-.555.069v-.625l-.312-.104-.278-.139-.069-.625-1.111-.069-.347-.486-.417-.625-1.25-.104-.312-.312-.486-.104-.347-.139-.177.242-.938.069-.069.278c-.302.153-1.141.143-1.779.143a39.892 39.892 0 0 0-3.034-1.39l-.44 1.121c.837.339 1.656.718 2.467 1.116-.058.167-.126.295-.233.295-.252 0-.139.66-.139.66s.666.019.868.069c.201.05.173.556.173.556.758-.051 1.074.994.973 1.25-.101.256.312.243.312.243s-.002.802-.104 1.007c-.1.205.632.388.833.694.202.307-.092 1.303-.242 1.354-.152.051.396.23.347.486-.051.257.158-.027.208.382.051.409.174 1.285.174 1.285l.694.07c.103-.666 1.385-.702 1.598-.625.857.307 1.527 1.637 1.527 1.944s-.556.347-.556.347l.024.34-1.781 1.781c-.18-.108-.361-.17-.465-.107-.252.153-.139-1.076-.139-1.076s.457-.327.659-.174c.202.152-1.714-2.548-2.118-2.293-.403.256-1.334-.233-1.284-.694.05-.46-1.806-2.014-1.806-2.014s-.343-.223-.556-.208c-.071.005-.113.027-.139.104-.101.307-.303.507 0 .66.302.154.237-.254.59.104.354.358 1.016.838.765 1.146a1.148 1.148 0 0 1-.556.382l.347.417h.556l.104.868s.611.302.764.66c.102.241.109.417.075.574a30.174 30.174 0 0 0-3.513-2.312.707.707 0 0 0 0-.311c-.101-.358.408-.479.66-.069l.485-.069.104-.452-.694-.555h-.556s-.062.397-.417.243c-.354-.154-.149-.087-.451-.139-.267-.045-.21.5-.159.772a29.956 29.956 0 0 0-2.384-1.109 30.333 30.333 0 0 0-10.916-2.246V15.11c.319.004.473-.11.508-.247.05-.205.112-.262.416-.312.302-.051-.08-.676-.382-.625-.224.038-.429-.031-.542-.172V11.44c4.84.074 9.533 1.04 13.899 2.809l.44-1.121a39.682 39.682 0 0 0-14.34-2.893V1.218zM37.262 23.714a29.047 29.047 0 0 1 12.134-2.907v9.016a20.075 20.075 0 0 0-7.947 1.893l.554 1.058a18.886 18.886 0 0 1 7.394-1.747v8.179a10.71 10.71 0 0 0-3.033.622h-.045l-.035-.556.243-.174-.417-.139-.312.417-.069.452-.521.104v.243h-.347v.321c-.744.403-1.438.887-2.063 1.448l-5.786-5.786a18.926 18.926 0 0 1 4.993-3.383l-.554-1.058a20.26 20.26 0 0 0-5.285 3.595l-6.381-6.381a29.129 29.129 0 0 1 7.477-5.217zm-1.95 12.449a20.31 20.31 0 0 0-3.314 4.739c-.227-.006-.442.036-.506.209-.151.409-.799.312-.799.312l-.104.208-.521.104-.104.312-.59.07 1.528-.035c.403-.051-.165.884-.417.833l-.695.035-.278.243h-.66l-.277.417-.972-.035s-.537.437-.486.59c.05.153-.126.625-.278.625-.151 0-.448.471-.347.625.102.153-.312.66-.312.66l-.069.521-.312.104v1.354l-.625.417v.625l-.275.296h-4.091a29.056 29.056 0 0 1 2.639-11.565 29.14 29.14 0 0 1 5.484-8.046l6.381 6.382zM24.374 50.902l-.764.799.104.833-.452.14-.104.347-.174 1.076.486.069c.251-.102.202.662 0 .765-.203.102-.755.316-.452.521.303.206-.798.134-.798-.174 0-.306-.613-.553-.764-.451-.083.056-.197-.082-.286-.221a29.381 29.381 0 0 1-.365-4.007h3.529l.04.303zm-14.138-1.508H1.219a48.537 48.537 0 0 1 4.971-20.89 48.8 48.8 0 0 1 8.889-12.574l6.388 6.388a39.887 39.887 0 0 0-7.324 10.483 39.535 39.535 0 0 0-3.907 16.593zm1.203 0a38.367 38.367 0 0 1 3.749-16.028 38.571 38.571 0 0 1 7.119-10.208l5.783 5.782a30.503 30.503 0 0 0-5.688 8.323 30.188 30.188 0 0 0-2.797 12.131h-8.166zm9.505 25.952h.201c.251-.871 1.462.04 1.562.348.039.118.183.269.35.398l-.748.747a38.285 38.285 0 0 1-1.365-1.493zm7.987-5.134a30.679 30.679 0 0 1-1.188-1.317c.075-.325.276-.666.276-.666.655-.41-.174-1.076-.174-1.076.102-.615-.347-1.319-.347-1.319-.907-.614-.66-1.806-.66-1.806v-.799c-.756-.716.312-.833.312-.833.353-.613-.243-1.076-.243-1.076l-.069-.66-.798-.104-.104-2.396-1.805-2.604c-.354-.104-.104-.729-.104-.729.454-.256-.104-.868-.104-.868l-.035-1.111 1.042-.104.243-.417h.521l-.07-1.354c.091-.239.229-.34.368-.374h.246c.144.03.254.096.254.096l.694.035.071-.131h2.407l.195 1.311-.625.556c-.555.308-.571 1.026.035 1.181.403.05.258 1.014-.347.348-.664 0-.095.471.104.625.908.461.694-.417.694-.417l.458-.367c.194 1.01.46 1.998.803 2.958a20.09 20.09 0 0 0 4.323 7.045l-6.373 6.373zm7.226-7.227a18.894 18.894 0 0 1-4.004-6.489 18.791 18.791 0 0 1-.857-3.299c.423.159.89.851.89.969 0 .154 2.014.035 2.014.035.555.358.764 1.285.764 1.285.556-.718 1.726-.063.868.347.806.512.799.973.799.973.656-.204.66.332.66.485 0 .154.208-.764.208-.764-.757-.562.99-.781.486.243l-.278.451.486.417.07 1.181c1.11-.103.798-1.493.798-1.493l.486-.104c0-.461.382-.208.382-.208-.243-1.197.222-1.709.539-1.916.403.75.892 1.458 1.472 2.104l-5.783 5.783zm.857.859l5.783-5.784a10.691 10.691 0 0 0 6.301 2.707l-.003.031s-.192.444.035.521c.22.073.17.125.271.234v.022l-.132.264c-.187-.254-.287.163-.174.277.115.115-.278.055-.278.209 0 .153-.114.236 0 .312s-.022.128-.173.242c-.152.115.625.14.625.14s-.154-.312.035-.312l.097.002v.498c-.067-.017-.129-.026-.201-.049v.382l-.417.035.347.416.271.023v.899c-.04.63-1.683.2-1.833.05l-.035.902-.312.069.07.625-.07.868.556-.104v.348l1.354.069.271-.29v.985l-.931.104-.382.208-.173-.312h-.382l-.255.34a18.972 18.972 0 0 1-3.495-.835 18.872 18.872 0 0 1-6.77-4.096zm13.591 16.553a30.355 30.355 0 0 0 4.172-.377l.116.256.868.243.59.139.209.902.451.035.139.556c.556.409-.139 1.284-.139 1.284v1.146l.382.173-.035.417.66.66.764.069 1.237 1.326a38.358 38.358 0 0 1-9.414 1.334v-8.163zm20.121 2.078v-.462c.908-.665.961-1.843.104-1.944-.65-.078-.362-.767.243-.868l.348-.174v-.451l1.181-1.076v-.8l-2.535-2.118c-.52-.192-.541-.833-.35-1.455.458-.391.916-.784 1.354-1.205l2.221 2.22c-.101.381-.455.593-.655.44.078.087.278.312.348.451.1.204.418.204.521 0 .067-.138.062-.385.081-.597l1.034 1.033c-.137.268-.269.537-.213.71l.452.208.069.868c.337.343 1.091.325 1.697.22l.205.205a38.568 38.568 0 0 1-6.105 4.795zm6.95-5.658l-.208-.208c-.031-.555-.076-1.298-.076-1.298l-.277-.278-.035-1.284c.176-.582-.686-1.401-.973-1.458-.041-.009-.056.008-.069.034-.101.204-.764.073-.764.278 0 .203-.41 1.204-.208 1.562.013.024.008.037.017.058l-3.167-3.165a30.365 30.365 0 0 0 5.852-8.673h-.001a30.283 30.283 0 0 0 2.626-11.791h8.163a38.336 38.336 0 0 1-3.622 15.705h.001a38.712 38.712 0 0 1-7.259 10.518z"
         id="path18" />
      <path
         d="M58.574 4.03l.069-.035.556-.382-.139-.243-.486.313-.313-.208-.174.243.417.277zM60.969 4.933l-.277-.278-.209.208.348.382.103.105.105-.105.52-.416-.208-.244zM59.824 5.627c-.252.103-.764.07-.764.07h-.903c-.024-.179-.236-.228-.451-.208s-.427.106-.451.208c-.051.205-.348.243-.348.243l-1.146.104c-.103.307-.713.517-.764.312-.111-.45-.762.559-.104.764.655.206 1.319 0 1.319 0l.139-.312 2.535.069c.203-.205.277-.521.277-.521s.616-.207.868-.104c.254.102.046-.727-.207-.625zM54.442 8.196v-.555l-.208-.208-.209-.729-.659-.208-.66.278-.694.451-.764.104-.382.451 1.597.174.312.486 1.146.104.764.798c.657.205.82-.128.416-.486l-.659-.66zM73.156 13.891l.765.243s.938 1.105.902.556c-.101-1.536-.823-1.568-1.076-1.875a.416.416 0 0 0-.312-.139c-.409-.008-.997.287-.938.59.049.256.255.522.659.625zM57.914 13.439l-.278-.139-.208.452.278.139zM59.476 14.307l-.347-.277s-.556-.055-.556-.208c0-.119-.27.356-.486.486.243.127.521.278.521.278.404 0 .66.332.66.486 0 .153.556.104.556.104l.069-.382-.417-.487zM56.942 14.203h-.069l-.522-.069v.312l.417.035.313.521.243-.174-.348-.556zM57.914 14.307c.025.019.073.006.104 0-.091-.046-.176-.13-.208-.139-.042-.009-.028.04.104.139zM45.449 16.356c.051.153.575.188.625.035.05-.154.245-.452-.208-.452-.454 0-.369-.262-.521-.417-.076-.076-.35-.113-.625-.104-.276.009-.54.048-.521.139.05.255.451.59.451.59s.749.055.799.209zM57.498 15.939v.452l.554.034-.138-.382zM63.226 20.835c-.252 0-.725-.316-.625-.521.102-.205-.868-.382-.868-.382s-.857-.832-.556-.729c.303.102.174-.347.174-.347s-.612.085-.764.035c-.152-.052-.104-.521-.104-.521s-.352-.057-.521-.035c-.057.007-.069-.004-.069.035 0 .153.178.18.277.486.103.307.066.8.521.902.453.103.538.212.59.417.05.205.625.243.625.243l.382.208 1.215 1.042v-.417s-.025-.416-.277-.416zM32.325 19.203l.243-.208-.313-.313-.208.243zM41.734 28.508l-.313-.278-.208.243.313.278zM41.074 29.029c.303 0-.243-.347-.243-.347s-.473.023-.556-.139l.035.486h.764zM73.503 28.578l.035.485.312-.034-.034-.486zM77.323 32.362l.521-.173s.028-.501-.174-.347c-.201.153-.353-.364-.555-.312-.202.051-.285-.196-.486-.452-.203-.256-.164-.298-.417-.451-.126-.077-.208-.111-.277-.104-.069.006-.104.036-.104.139 0 .205.241.299.139.556-.1.255.111.486.312.486.202 0 .354.106.556.208.201.101.332.245.485.45zM78.747 35.591c0 .153.312-.555.312-.555-.253-.205-.452-.694-.452-.694s-.277-.697-.277-.799c0-.103-.334-.227-.486-.278-.151-.051-.416-.486-.416-.486l-.591.035c.151.205.451.351.451.555 0 .205-.095.365.209.417.302.051.49-.048.59.208.101.256.119.663.069.868-.051.205.026.521.278.521s.313.055.313.208zM72.67 33.265l-.035-.313-.52.069.034.313zM72.948 33.334h.312v.243h-.312zM72.809 37.223s-.626.168-1.181-.139c-.554-.307.107-.417.208-.417.103 0 .55-.369.348-.625-.202-.256 0-.726 0-.521 0 .205.558.327.659.174.101-.153.01-.61-.242-.764s.444-.265.242-.521c-.201-.257-.312-.556-.312-.556s-.297.413-.902.208c0 0-.079.94-.382 1.146h-.729s.162.263.312.417c.152.154.493.456.14.66-.354.204.069.173.069.173s-.067 1.057-.521.903c-.453-.152-.59.559-.59.764s1.771.283 1.493 0c-.152-.153.208-.486.208-.486s1.207.104 1.458.104c.252 0 .465-.057.312-.312-.151-.256-.59-.208-.59-.208zM73.538 35.383h.312v.347h-.312zM74.51 35.695l-.277-.139-.14.313.243.139zM80.413 40.104c-.252-.051-.139-.798-.139-.798s.229-.972-.174-.972-.096-.507-.347-.66c-.253-.154-.108-.872-.209-1.076-.101-.205-.094-.437-.347-.59-.031-.019-.054-.04-.069-.035-.113.036.098.604-.035.694-.151.103-.265.298-.417.451-.151.154.312.367.312.521 0 .153.104.903.104.903s.367.177.417.382c.051.205-.014.608.139.66.15.051.449.247.347.451-.101.206-.104.625-.104.625l.208.451.417.243c.001 0 .15-1.198-.103-1.25zM66.385 37.015l.035.312.487-.069-.035-.313zM58.886 37.882c0 .154.354.312.556.312.201 0 .729-.417.729-.417s.271-.71.069-.66c-.201.051-.609.342-.659.035-.027-.152-.191-.172-.348-.172s-.312.035-.312.035l-.798.104-.07.347.556.069c-.001 0 .277.194.277.347zM55.795 37.677l-.104-.451.312-.072.104.451zM56.56 37.57l1.11-.035v-.312l-1.11.035zM48.192 37.327h.382v.312h-.382zM50.727 37.674l.347.07.069-.313-.347-.069zM51.733 37.883l-.347-.035.03-.312.348.034zM47.706 37.674l-.347-.034-.069.312.381.035zM55.484 37.709l.103.278.174-.07-.104-.277zM67.878 37.778l-.173.347.278.14.174-.383zM52.116 37.952h.416v.278h-.416zM47.428 38.091l-.416-.104-.07.312.382.104zM46.907 38.716l-.034-.313-.313.07.07.312zM52.567 38.438v.347h.312l-.035-.382zM68.191 38.612c-.252.051-.201.23 0 .486l.625-.069s.449-.229.348-.382c-.052-.077-.222-.104-.417-.104s-.43.043-.556.069zM80.864 43.785l.035-.382-.278-.035-.07.382zM80.691 44.861l-.278-.138-.139.312.277.139zM46.178 47.778l-.555-.07-.104.244h-.244l-.069.416h.313l.034.313-.208.208-.07.243-.416.104-.903.868-.069.417-.243.381-.313.765-1.041.034-.209.938.139.763.903.348.104-.521.313-.139.069-.521.174-.347.312-.347.104-.417.487-.312.624-.104.243-.313.105-.625.034-.451.208-.313.625-.243v-.972h-.312zM77.218 48.333l.556.105.035-.313-.556-.104zM76.003 48.472l-.173.07-.348.208-.347-.208-.138.277.381.243.07.07.104-.07.278-.173.035.104.312-.104-.104-.243zM54.268 53.507c.253.154.673-.209.417-.382-.756-.513-.701-1.171-.903-1.632-.043-.1-.124-.195-.208-.208-.084-.014-.167.073-.243.277v.659c0 .001.685 1.132.937 1.286zM27.672 55.694c.05.562.451-.348.451-.348v-3.472l-.938-.104.069.348h.243c.403.717.069 2.465.069 2.465s-.627.028-.729-.277c-.1-.308-.341.679-.139.833.204.152.925-.008.974.555zM51.109 54.166c.108.447.11-.711.312-.659.201.051.034-.729.034-.729l-.902.66c.453.051.503.525.556.728zM77.392 54.688c-.076-.23-.286-.33-.521-.312-.39.028-.833.334-.694.521.303.409.805.191 1.007.243.201.049.41.162.208-.452zM29.026 55.104c-.118 0-.208.09-.208.209s.09.243.208.243.208-.124.208-.243-.089-.209-.208-.209z"
         id="path20" />
      <path
         d="M28.297 57.604l.104-.486-.347-.139.07-.764.277-.069.07-.347-.764.52-.521-.312v1.215l.834 1.076zM47.116 57.083l-.451.035.069.729.278.243.555.174s.784-.22.833-.833l-1.181-.035-.103-.313zM28.505 58.923l-.347.035-.034.417.381.069zM91.732 59.409a.366.366 0 0 0-.174-.034c-.21.011-.451.114-.59.208l.139.243c.19-.131.464-.167.521-.139a.231.231 0 0 1-.035-.035l.312-.035a.275.275 0 0 0-.173-.208zM28.853 60.104c0-.12-.09-.208-.208-.208s-.208.087-.208.208c0 .119.09.209.208.209s.208-.09.208-.209zM28.992 60.972a.204.204 0 0 0-.208.208c0 .12.09.209.208.209s.243-.089.243-.209c0-.119-.125-.208-.243-.208zM47.845 62.465c.226-.039.368-.135.556-.174.19-.039.272-.354.347-.659.076-.308-.069-.452-.069-.452s-.185.308-.486 0a.253.253 0 0 0-.139-.069c-.255-.012-.456.771-.556.973 0-.001.12.42.347.381zM27.638 61.944l.416-.07v-.347l-.416.07zM94.996 64.201c-.007-.085-.01-.227-.069-.348l-.278.139c.034.068.028.139.035.209.008.089.019.212.104.277.055.041.127.05.209.035l-.035-.312c.024.004.028.047.035.069-.006-.01.001-.043-.001-.069zM94.335 64.514c.077.311.17.611.174.624l.312-.104a3.615 3.615 0 0 1-.208-.591l-.278.071zM70.969 64.722h.347v.972h-.347zM60.206 65.242l-.139-.243-.417.243.174.243zM92.913 65.693c-.024.241.039.543.277.591l.069-.312c-.023-.021-.046-.131-.035-.243l-.311-.036zM92.773 66.249c-.091.007-.238.105-.347.174-.303.192-.189.956 0 .764.188-.19.412.02.451-.556.019-.288-.012-.388-.104-.382zM54.094 67.465l.348-.556-.313-.104-.347.243.139.174zM80.274 70.381l.486.035.034-.417-.486-.069zM79.892 71.006l-.104.312c.024.009.069.012.104.035l.069.277c-.022.035-.05.047-.069.069l.208.208c.162-.18.216-.352.174-.521-.067-.258-.35-.369-.382-.38zM42.602 80.866l-.312.243-.139.139.139.105.347.278.174-.278-.174-.139.139-.105zM46.491 85.276l.243-.243.139-.138-.174-.105-.521-.243-.138.243.312.174-.104.103zM20.659 87.116l.382.625.069.451.486.174.209.278.347-.173-.243-.695-.66-.555z"
         id="path22" />
    </g>
  </g>
  <defs
     data-v-fde0c5aa=""
     id="defs27">
    <!---->
  </defs>
  <g
     data-v-fde0c5aa=""
     id="02a86bd1-d63a-4ab9-83df-ab54fbec2685"
     fill="#12262A"
     transform="matrix(0.39523085951805115,0,0,0.39523085951805115,136.73935186599437,170.83233347093687)">
    <path
       d="M0.35 10.04L0.35 10.04L0.84 9.98L1.03 10.85L1.03 10.85Q1.13 11.33 1.20 11.41L1.20 11.41L1.20 11.41Q1.27 11.49 1.68 11.64L1.68 11.64L1.68 11.64Q2.52 11.95 3.42 11.95L3.42 11.95L3.42 11.95Q4.20 11.95 4.74 11.49L4.74 11.49L4.74 11.49Q5.28 11.04 5.28 10.26L5.28 10.26L5.28 10.26Q5.28 9.65 4.82 9.21L4.82 9.21L4.82 9.21Q4.34 8.76 3.49 8.30L3.49 8.30L2.91 7.98L2.91 7.98Q2.17 7.55 1.93 7.36L1.93 7.36L1.93 7.36Q1.57 7.08 1.26 6.59L1.26 6.59L1.26 6.59Q0.95 6.10 0.95 5.46L0.95 5.46L0.95 5.46Q0.95 4.39 1.79 3.68L1.79 3.68L1.79 3.68Q2.63 2.97 3.74 2.97L3.74 2.97L3.74 2.97Q4.02 2.97 4.37 3.04L4.37 3.04L4.37 3.04Q4.57 3.08 4.90 3.17L4.90 3.17L5.14 3.25L5.14 3.25Q5.24 3.25 5.28 3.16L5.28 3.16L5.28 3.16Q5.33 3.05 5.33 2.98L5.33 2.98L5.35 2.88L5.82 2.85L6.04 5.41L5.53 5.43L5.41 4.18L5.41 4.18Q4.66 3.62 3.50 3.62L3.50 3.62L3.50 3.62Q2.86 3.62 2.35 4.05L2.35 4.05L2.35 4.05Q1.87 4.47 1.87 5.12L1.87 5.12L1.87 5.12Q1.87 5.72 2.32 6.17L2.32 6.17L2.32 6.17Q2.75 6.60 3.62 7.08L3.62 7.08L4.40 7.50L4.40 7.50Q5.35 8.03 5.88 8.59L5.88 8.59L5.88 8.59Q6.41 9.15 6.41 9.92L6.41 9.92L6.41 9.92Q6.41 10.99 5.56 11.76L5.56 11.76L5.56 11.76Q4.69 12.54 3.23 12.54L3.23 12.54L3.23 12.54Q2.67 12.54 2.17 12.41L2.17 12.41L2.17 12.41Q1.67 12.29 1.61 12.29L1.61 12.29L1.61 12.29Q1.36 12.29 1.36 12.58L1.36 12.58L1.37 12.76L0.90 12.80L0.90 12.80Q0.83 12.41 0.35 10.04ZM14.88 5.35L14.38 5.33L14.38 5.33Q14.50 4.17 14.58 3.08L14.58 3.08L22.66 3.08L22.66 3.08Q22.58 4.13 22.55 4.53L22.55 4.53L22.55 4.53Q22.51 5.26 22.49 5.32L22.49 5.32L21.99 5.30L21.99 5.30Q22.07 4.34 22.07 4.16L22.07 4.16L22.07 4.16Q22.07 3.88 21.93 3.79L21.93 3.79L21.93 3.79Q21.76 3.69 21.36 3.69L21.36 3.69L19.75 3.69L19.75 3.69Q19.24 3.69 19.12 3.79L19.12 3.79L19.12 3.79Q19.02 3.87 19.02 4.36L19.02 4.36L19.02 11.22L19.02 11.22Q19.02 11.66 19.16 11.76L19.16 11.76L19.16 11.76Q19.32 11.87 19.83 11.87L19.83 11.87L20.39 11.87L20.41 12.41L16.71 12.40L16.71 11.87L16.93 11.87L16.93 11.87Q17.60 11.87 17.75 11.79L17.75 11.79L17.75 11.79Q17.89 11.70 17.89 11.28L17.89 11.28L17.89 4.48L17.89 4.48Q17.89 3.92 17.79 3.80L17.79 3.80L17.79 3.80Q17.69 3.69 17.27 3.69L17.27 3.69L15.80 3.69L15.80 3.69Q15.61 3.69 15.54 3.71L15.54 3.71L15.54 3.71Q15.48 3.72 15.37 3.72L15.37 3.72L15.37 3.72Q15.34 3.72 15.22 3.79L15.22 3.79L15.22 3.79Q15.14 3.84 15.11 3.86L15.11 3.86L15.11 3.86Q15.09 3.88 15.05 3.99L15.05 3.99L15.05 3.99Q15.02 4.05 14.99 4.14L14.99 4.14L14.99 4.14Q14.96 4.21 14.94 4.36L14.94 4.36L14.94 4.36Q14.92 4.59 14.92 4.61L14.92 4.61L14.92 4.61Q14.92 4.80 14.90 4.95L14.90 4.95L14.90 4.95Q14.90 5.02 14.90 5.15L14.90 5.15L14.90 5.15Q14.89 5.29 14.88 5.35L14.88 5.35ZM30.41 12.41L30.40 11.87L30.57 11.87L30.57 11.87Q30.96 11.87 31.09 11.73L31.09 11.73L31.09 11.73Q31.21 11.57 31.55 10.83L31.55 10.83L32.46 8.82L33.03 7.53L33.03 7.53Q33.30 6.97 33.34 6.86L33.34 6.86L33.34 6.86Q33.41 6.70 33.46 6.60L33.46 6.60L33.46 6.60Q33.51 6.51 33.52 6.45L33.52 6.45L33.62 6.21L35.05 2.74L35.34 2.74L35.34 2.74Q36.20 4.98 38.38 10.25L38.38 10.25L38.38 10.25Q38.83 11.34 39.03 11.64L39.03 11.64L39.03 11.64Q39.16 11.87 39.60 11.87L39.60 11.87L39.81 11.87L39.80 12.41L36.61 12.41L36.62 11.87L37.04 11.87L37.04 11.87Q37.65 11.87 37.65 11.70L37.65 11.70L37.65 11.70Q37.65 11.63 37.52 11.27L37.52 11.27L36.48 8.72L33.23 8.72L32.12 11.18L32.12 11.18Q31.99 11.50 31.99 11.63L31.99 11.63L31.99 11.63Q31.99 11.79 32.08 11.83L32.08 11.83L32.08 11.83Q32.18 11.87 32.56 11.87L32.56 11.87L33.13 11.87L33.13 12.41L30.41 12.41ZM34.91 4.79L33.50 8.10L36.24 8.10L34.91 4.79ZM47.82 5.35L47.33 5.33L47.33 5.33Q47.45 4.17 47.53 3.08L47.53 3.08L55.61 3.08L55.61 3.08Q55.53 4.13 55.50 4.53L55.50 4.53L55.50 4.53Q55.46 5.26 55.44 5.32L55.44 5.32L54.94 5.30L54.94 5.30Q55.02 4.34 55.02 4.16L55.02 4.16L55.02 4.16Q55.02 3.88 54.88 3.79L54.88 3.79L54.88 3.79Q54.71 3.69 54.30 3.69L54.30 3.69L52.70 3.69L52.70 3.69Q52.19 3.69 52.07 3.79L52.07 3.79L52.07 3.79Q51.97 3.87 51.97 4.36L51.97 4.36L51.97 11.22L51.97 11.22Q51.97 11.66 52.11 11.76L52.11 11.76L52.11 11.76Q52.27 11.87 52.78 11.87L52.78 11.87L53.34 11.87L53.35 12.41L49.66 12.40L49.66 11.87L49.88 11.87L49.88 11.87Q50.55 11.87 50.70 11.79L50.70 11.79L50.70 11.79Q50.84 11.70 50.84 11.28L50.84 11.28L50.84 4.48L50.84 4.48Q50.84 3.92 50.74 3.80L50.74 3.80L50.74 3.80Q50.64 3.69 50.22 3.69L50.22 3.69L48.75 3.69L48.75 3.69Q48.56 3.69 48.49 3.71L48.49 3.71L48.49 3.71Q48.43 3.72 48.32 3.72L48.32 3.72L48.32 3.72Q48.29 3.72 48.17 3.79L48.17 3.79L48.17 3.79Q48.09 3.84 48.06 3.86L48.06 3.86L48.06 3.86Q48.04 3.88 48.00 3.99L48.00 3.99L48.00 3.99Q47.97 4.05 47.94 4.14L47.94 4.14L47.94 4.14Q47.91 4.21 47.89 4.36L47.89 4.36L47.89 4.36Q47.87 4.59 47.87 4.61L47.87 4.61L47.87 4.61Q47.87 4.80 47.85 4.95L47.85 4.95L47.85 4.95Q47.85 5.02 47.84 5.15L47.84 5.15L47.84 5.15Q47.84 5.29 47.82 5.35L47.82 5.35ZM63.94 3.64L63.35 3.64L63.36 3.08L66.88 3.08L66.88 3.64L66.64 3.64L66.64 3.64Q66.10 3.64 65.93 3.73L65.93 3.73L65.93 3.73Q65.79 3.81 65.79 4.28L65.79 4.28L65.79 11.22L65.79 11.22Q65.79 11.68 65.90 11.77L65.90 11.77L65.90 11.77Q66.01 11.87 66.54 11.87L66.54 11.87L67.09 11.87L67.10 12.41L63.52 12.41L63.51 11.87L63.87 11.87L63.87 11.87Q64.43 11.87 64.54 11.77L64.54 11.77L64.54 11.77Q64.65 11.67 64.65 11.25L64.65 11.25L64.65 4.14L64.65 4.14Q64.65 3.77 64.55 3.71L64.55 3.71L64.55 3.71Q64.44 3.64 63.94 3.64L63.94 3.64ZM75.22 8.02L75.22 8.02L75.22 8.02Q75.22 6.86 75.69 5.83L75.69 5.83L75.69 5.83Q76.16 4.85 76.91 4.27L76.91 4.27L76.91 4.27Q77.66 3.69 78.55 3.37L78.55 3.37L78.55 3.37Q79.45 3.05 80.29 3.05L80.29 3.05L80.29 3.05Q81.16 3.05 81.83 3.16L81.83 3.16L81.83 3.16Q82.46 3.26 82.75 3.37L82.75 3.37L82.75 3.37Q83.06 3.48 83.09 3.48L83.09 3.48L83.09 3.48Q83.26 3.48 83.28 3.41L83.28 3.41L83.28 3.41Q83.31 3.33 83.31 3.09L83.31 3.09L83.31 2.97L83.84 2.97L83.84 2.97Q83.88 4.30 84.01 5.64L84.01 5.64L83.51 5.65L83.51 5.65Q83.48 5.40 83.47 5.26L83.47 5.26L83.47 5.26Q83.47 5.20 83.46 5.13L83.46 5.13L83.46 5.13Q83.45 5.07 83.45 5.02L83.45 5.02L83.45 5.02Q83.44 4.98 83.44 4.95L83.44 4.95L83.44 4.95Q83.41 4.84 83.41 4.74L83.41 4.74L83.41 4.74Q83.41 4.68 83.37 4.59L83.37 4.59L83.37 4.59Q83.37 4.57 83.34 4.55L83.34 4.55L83.34 4.55Q83.31 4.52 83.31 4.50L83.31 4.50L83.31 4.50Q83.28 4.44 83.21 4.41L83.21 4.41L83.21 4.41Q83.17 4.38 83.15 4.37L83.15 4.37L83.15 4.37Q83.12 4.36 83.09 4.35L83.09 4.35L83.09 4.35Q83.08 4.35 83.05 4.33L83.05 4.33L83.05 4.33Q83.03 4.31 82.99 4.29L82.99 4.29L82.99 4.29Q82.95 4.27 82.91 4.25L82.91 4.25L82.91 4.25Q82.68 4.16 82.65 4.14L82.65 4.14L82.65 4.14Q82.30 3.96 81.66 3.83L81.66 3.83L81.66 3.83Q80.99 3.71 80.33 3.71L80.33 3.71L80.33 3.71Q78.61 3.71 77.51 4.84L77.51 4.84L77.51 4.84Q76.41 5.99 76.41 7.62L76.41 7.62L76.41 7.62Q76.41 9.35 77.63 10.69L77.63 10.69L77.63 10.69Q78.83 12.02 80.65 12.02L80.65 12.02L80.65 12.02Q81.66 12.02 82.60 11.49L82.60 11.49L82.60 11.49Q83.55 10.94 83.58 10.58L83.58 10.58L83.62 9.41L84.11 9.41L84.03 11.45L84.03 11.45Q83.96 11.49 83.83 11.57L83.83 11.57L83.83 11.57Q83.77 11.60 83.31 11.85L83.31 11.85L83.31 11.85Q82.93 12.05 82.49 12.23L82.49 12.23L82.49 12.23Q82.13 12.39 81.48 12.51L81.48 12.51L81.48 12.51Q80.87 12.63 80.30 12.64L80.30 12.64L80.30 12.64Q77.92 12.64 76.56 11.39L76.56 11.39L76.56 11.39Q75.22 10.14 75.22 8.02ZM101.68 10.04L101.68 10.04L102.18 9.98L102.36 10.85L102.36 10.85Q102.47 11.33 102.54 11.41L102.54 11.41L102.54 11.41Q102.61 11.49 103.02 11.64L103.02 11.64L103.02 11.64Q103.86 11.95 104.75 11.95L104.75 11.95L104.75 11.95Q105.54 11.95 106.08 11.49L106.08 11.49L106.08 11.49Q106.61 11.04 106.61 10.26L106.61 10.26L106.61 10.26Q106.61 9.65 106.16 9.21L106.16 9.21L106.16 9.21Q105.68 8.76 104.82 8.30L104.82 8.30L104.25 7.98L104.25 7.98Q103.50 7.55 103.27 7.36L103.27 7.36L103.27 7.36Q102.91 7.08 102.60 6.59L102.60 6.59L102.60 6.59Q102.29 6.10 102.29 5.46L102.29 5.46L102.29 5.46Q102.29 4.39 103.13 3.68L103.13 3.68L103.13 3.68Q103.97 2.97 105.08 2.97L105.08 2.97L105.08 2.97Q105.36 2.97 105.70 3.04L105.70 3.04L105.70 3.04Q105.90 3.08 106.24 3.17L106.24 3.17L106.48 3.25L106.48 3.25Q106.57 3.25 106.61 3.16L106.61 3.16L106.61 3.16Q106.67 3.05 106.67 2.98L106.67 2.98L106.68 2.88L107.16 2.85L107.37 5.41L106.87 5.43L106.74 4.18L106.74 4.18Q106.00 3.62 104.84 3.62L104.84 3.62L104.84 3.62Q104.19 3.62 103.69 4.05L103.69 4.05L103.69 4.05Q103.21 4.47 103.21 5.12L103.21 5.12L103.21 5.12Q103.21 5.72 103.66 6.17L103.66 6.17L103.66 6.17Q104.09 6.60 104.96 7.08L104.96 7.08L105.73 7.50L105.73 7.50Q106.68 8.03 107.21 8.59L107.21 8.59L107.21 8.59Q107.75 9.15 107.75 9.92L107.75 9.92L107.75 9.92Q107.75 10.99 106.89 11.76L106.89 11.76L106.89 11.76Q106.03 12.54 104.57 12.54L104.57 12.54L104.57 12.54Q104.01 12.54 103.51 12.41L103.51 12.41L103.51 12.41Q103.00 12.29 102.95 12.29L102.95 12.29L102.95 12.29Q102.70 12.29 102.70 12.58L102.70 12.58L102.71 12.76L102.23 12.80L102.23 12.80Q102.17 12.41 101.68 10.04ZM116.52 3.64L115.93 3.64L115.94 3.08L119.46 3.08L119.46 3.64L119.23 3.64L119.23 3.64Q118.68 3.64 118.51 3.73L118.51 3.73L118.51 3.73Q118.37 3.81 118.37 4.28L118.37 4.28L118.37 11.22L118.37 11.22Q118.37 11.68 118.48 11.77L118.48 11.77L118.48 11.77Q118.59 11.87 119.12 11.87L119.12 11.87L119.67 11.87L119.68 12.41L116.10 12.41L116.09 11.87L116.45 11.87L116.45 11.87Q117.01 11.87 117.12 11.77L117.12 11.77L117.12 11.77Q117.24 11.67 117.24 11.25L117.24 11.25L117.24 4.14L117.24 4.14Q117.24 3.77 117.13 3.71L117.13 3.71L117.13 3.71Q117.02 3.64 116.52 3.64L116.52 3.64ZM127.70 5.35L127.20 5.33L127.20 5.33Q127.33 4.17 127.41 3.08L127.41 3.08L135.49 3.08L135.49 3.08Q135.41 4.13 135.38 4.53L135.38 4.53L135.38 4.53Q135.34 5.26 135.32 5.32L135.32 5.32L134.82 5.30L134.82 5.30Q134.90 4.34 134.90 4.16L134.90 4.16L134.90 4.16Q134.90 3.88 134.76 3.79L134.76 3.79L134.76 3.79Q134.59 3.69 134.18 3.69L134.18 3.69L132.58 3.69L132.58 3.69Q132.07 3.69 131.95 3.79L131.95 3.79L131.95 3.79Q131.85 3.87 131.84 4.36L131.84 4.36L131.84 11.22L131.84 11.22Q131.84 11.66 131.99 11.76L131.99 11.76L131.99 11.76Q132.15 11.87 132.66 11.87L132.66 11.87L133.22 11.87L133.23 12.41L129.54 12.40L129.54 11.87L129.76 11.87L129.76 11.87Q130.43 11.87 130.57 11.79L130.57 11.79L130.57 11.79Q130.72 11.70 130.72 11.28L130.72 11.28L130.72 4.48L130.72 4.48Q130.72 3.92 130.62 3.80L130.62 3.80L130.62 3.80Q130.52 3.69 130.09 3.69L130.09 3.69L128.63 3.69L128.63 3.69Q128.44 3.69 128.37 3.71L128.37 3.71L128.37 3.71Q128.30 3.72 128.19 3.72L128.19 3.72L128.19 3.72Q128.17 3.72 128.05 3.79L128.05 3.79L128.05 3.79Q127.97 3.84 127.94 3.86L127.94 3.86L127.94 3.86Q127.91 3.88 127.87 3.99L127.87 3.99L127.87 3.99Q127.85 4.05 127.82 4.14L127.82 4.14L127.82 4.14Q127.79 4.21 127.77 4.36L127.77 4.36L127.77 4.36Q127.74 4.59 127.74 4.61L127.74 4.61L127.74 4.61Q127.74 4.80 127.73 4.95L127.73 4.95L127.73 4.95Q127.73 5.02 127.72 5.15L127.72 5.15L127.72 5.15Q127.72 5.29 127.70 5.35L127.70 5.35ZM143.24 3.64L143.23 3.08L150.44 3.08L150.44 3.08Q150.45 4.14 150.51 5.28L150.51 5.28L149.96 5.30L149.96 5.30Q149.95 4.66 149.89 4.25L149.89 4.25L149.89 4.25Q149.85 3.89 149.80 3.80L149.80 3.80L149.80 3.80Q149.74 3.71 149.63 3.69L149.63 3.69L149.63 3.69Q149.53 3.68 148.94 3.68L148.94 3.68L146.56 3.68L146.56 3.68Q146.02 3.68 145.87 3.77L145.87 3.77L145.87 3.77Q145.75 3.86 145.75 4.33L145.75 4.33L145.75 6.28L145.75 6.28Q145.75 6.69 145.80 6.76L145.80 6.76L145.80 6.76Q145.87 6.84 146.21 6.84L146.21 6.84L148.33 6.84L148.33 6.84Q148.69 6.84 148.77 6.73L148.77 6.73L148.77 6.73Q148.85 6.63 148.86 6.14L148.86 6.14L148.86 5.61L149.37 5.63L149.37 8.97L148.86 8.97L148.86 8.24L148.86 8.24Q148.86 7.66 148.78 7.57L148.78 7.57L148.78 7.57Q148.70 7.46 148.35 7.46L148.35 7.46L146.25 7.46L146.25 7.46Q145.92 7.46 145.83 7.54L145.83 7.54L145.83 7.54Q145.75 7.63 145.75 7.89L145.75 7.89L145.75 11.20L145.75 11.20Q145.75 11.57 145.83 11.67L145.83 11.67L145.83 11.67Q145.92 11.77 146.19 11.77L146.19 11.77L146.19 11.77Q149.11 11.75 149.64 11.69L149.64 11.69L149.64 11.69Q150.16 11.63 150.24 11.38L150.24 11.38L150.25 11.36L150.25 11.35L150.48 10.17L150.96 10.25L150.61 12.41L143.51 12.41L143.51 11.87L143.88 11.87L143.88 11.87Q144.44 11.87 144.52 11.80L144.52 11.80L144.52 11.80Q144.61 11.72 144.61 11.33L144.61 11.33L144.61 4.24L144.61 4.24Q144.61 3.82 144.46 3.73L144.46 3.73L144.46 3.73Q144.29 3.64 143.64 3.64L143.64 3.64L143.24 3.64ZM168.79 8.24L168.79 8.24L168.79 8.24Q168.79 6.92 169.40 5.72L169.40 5.72L169.40 5.72Q170.02 4.52 171.25 3.72L171.25 3.72L171.25 3.72Q172.48 2.92 174.10 2.92L174.10 2.92L174.10 2.92Q175.38 2.92 176.96 3.57L176.96 3.57L176.96 2.86L177.52 2.86L177.62 5.92L177.07 5.93L176.98 4.48L176.98 4.48Q176.89 4.41 176.62 4.24L176.62 4.24L176.62 4.24Q176.37 4.07 175.62 3.83L175.62 3.83L175.62 3.83Q174.89 3.60 173.99 3.60L173.99 3.60L173.99 3.60Q173.01 3.60 172.24 3.93L172.24 3.93L172.24 3.93Q171.47 4.27 171.01 4.83L171.01 4.83L171.01 4.83Q170.54 5.39 170.30 6.08L170.30 6.08L170.30 6.08Q170.04 6.78 170.04 7.57L170.04 7.57L170.04 7.57Q170.04 9.33 171.17 10.69L171.17 10.69L171.17 10.69Q172.29 12.05 174.15 12.05L174.15 12.05L174.15 12.05Q174.84 12.05 175.48 11.85L175.48 11.85L175.48 11.85Q176.11 11.66 176.33 11.48L176.33 11.48L176.57 11.28L176.57 8.78L174.90 8.78L174.89 8.23L178.75 8.23L178.77 8.78L177.70 8.78L177.70 11.64L176.91 11.98L176.91 11.98Q176.22 12.30 175.99 12.39L175.99 12.39L175.99 12.39Q175.74 12.48 175.10 12.61L175.10 12.61L175.10 12.61Q174.49 12.74 173.88 12.74L173.88 12.74L173.88 12.74Q172.58 12.74 171.61 12.37L171.61 12.37L171.61 12.37Q170.62 12.00 170.00 11.36L170.00 11.36L170.00 11.36Q169.42 10.76 169.09 9.94L169.09 9.94L169.09 9.94Q168.79 9.15 168.79 8.24ZM186.52 3.64L186.50 3.08L193.72 3.08L193.72 3.08Q193.73 4.14 193.79 5.28L193.79 5.28L193.24 5.30L193.24 5.30Q193.22 4.66 193.17 4.25L193.17 4.25L193.17 4.25Q193.13 3.89 193.07 3.80L193.07 3.80L193.07 3.80Q193.02 3.71 192.90 3.69L192.90 3.69L192.90 3.69Q192.81 3.68 192.22 3.68L192.22 3.68L189.84 3.68L189.84 3.68Q189.29 3.68 189.15 3.77L189.15 3.77L189.15 3.77Q189.03 3.86 189.03 4.33L189.03 4.33L189.03 6.28L189.03 6.28Q189.03 6.69 189.08 6.76L189.08 6.76L189.08 6.76Q189.15 6.84 189.49 6.84L189.49 6.84L191.60 6.84L191.60 6.84Q191.97 6.84 192.05 6.73L192.05 6.73L192.05 6.73Q192.13 6.63 192.14 6.14L192.14 6.14L192.14 5.61L192.65 5.63L192.65 8.97L192.14 8.97L192.14 8.24L192.14 8.24Q192.14 7.66 192.06 7.57L192.06 7.57L192.06 7.57Q191.98 7.46 191.63 7.46L191.63 7.46L189.53 7.46L189.53 7.46Q189.20 7.46 189.11 7.54L189.11 7.54L189.11 7.54Q189.03 7.63 189.03 7.89L189.03 7.89L189.03 11.20L189.03 11.20Q189.03 11.57 189.11 11.67L189.11 11.67L189.11 11.67Q189.20 11.77 189.47 11.77L189.47 11.77L189.47 11.77Q192.39 11.75 192.92 11.69L192.92 11.69L192.92 11.69Q193.44 11.63 193.52 11.38L193.52 11.38L193.53 11.36L193.53 11.35L193.76 10.17L194.24 10.25L193.89 12.41L186.79 12.41L186.79 11.87L187.15 11.87L187.15 11.87Q187.71 11.87 187.80 11.80L187.80 11.80L187.80 11.80Q187.89 11.72 187.89 11.33L187.89 11.33L187.89 4.24L187.89 4.24Q187.89 3.82 187.74 3.73L187.74 3.73L187.74 3.73Q187.57 3.64 186.92 3.64L186.92 3.64L186.52 3.64ZM202.13 3.64L202.11 3.08L204.29 3.08L210.02 10.48L210.02 4.14L210.02 4.14Q210.02 3.81 209.87 3.72L209.87 3.72L209.87 3.72Q209.71 3.64 209.25 3.64L209.25 3.64L208.76 3.64L208.79 3.08L211.77 3.08L211.77 3.64L211.45 3.64L211.45 3.64Q210.98 3.64 210.83 3.75L210.83 3.75L210.83 3.75Q210.68 3.86 210.68 4.25L210.68 4.25L210.68 12.32L210.68 12.47L210.68 12.47Q210.68 12.52 210.67 12.57L210.67 12.57L210.67 12.57Q210.66 12.61 210.62 12.64L210.62 12.64L210.62 12.64Q210.61 12.65 210.55 12.65L210.55 12.65L210.36 12.65L210.30 12.65L210.27 12.65L210.25 12.64L210.25 12.64Q210.22 12.64 210.21 12.63L210.21 12.63L210.21 12.63Q210.19 12.61 210.19 12.60L210.19 12.60L210.19 12.60Q210.19 12.58 210.18 12.57L210.18 12.57L210.18 12.57Q210.15 12.54 210.12 12.50L210.12 12.50L210.12 12.50Q210.11 12.48 210.09 12.45L210.09 12.45L210.09 12.45Q210.07 12.41 210.05 12.40L210.05 12.40L203.95 4.56L204.02 11.22L204.02 11.22Q204.02 11.67 204.18 11.77L204.18 11.77L204.18 11.77Q204.34 11.87 205.05 11.87L205.05 11.87L205.29 11.87L205.29 12.41L202.35 12.41L202.35 11.87L202.77 11.87L202.77 11.87Q203.15 11.87 203.26 11.76L203.26 11.76L203.26 11.76Q203.36 11.66 203.36 11.25L203.36 11.25L203.36 3.80L203.22 3.64L202.13 3.64ZM219.52 3.64L219.51 3.08L226.72 3.08L226.72 3.08Q226.73 4.14 226.79 5.28L226.79 5.28L226.24 5.30L226.24 5.30Q226.23 4.66 226.17 4.25L226.17 4.25L226.17 4.25Q226.13 3.89 226.08 3.80L226.08 3.80L226.08 3.80Q226.02 3.71 225.91 3.69L225.91 3.69L225.91 3.69Q225.81 3.68 225.22 3.68L225.22 3.68L222.84 3.68L222.84 3.68Q222.30 3.68 222.15 3.77L222.15 3.77L222.15 3.77Q222.03 3.86 222.03 4.33L222.03 4.33L222.03 6.28L222.03 6.28Q222.03 6.69 222.09 6.76L222.09 6.76L222.09 6.76Q222.15 6.84 222.50 6.84L222.50 6.84L224.61 6.84L224.61 6.84Q224.97 6.84 225.05 6.73L225.05 6.73L225.05 6.73Q225.13 6.63 225.14 6.14L225.14 6.14L225.14 5.61L225.65 5.63L225.65 8.97L225.14 8.97L225.14 8.24L225.14 8.24Q225.14 7.66 225.07 7.57L225.07 7.57L225.07 7.57Q224.98 7.46 224.64 7.46L224.64 7.46L222.54 7.46L222.54 7.46Q222.20 7.46 222.12 7.54L222.12 7.54L222.12 7.54Q222.03 7.63 222.03 7.89L222.03 7.89L222.03 11.20L222.03 11.20Q222.03 11.57 222.12 11.67L222.12 11.67L222.12 11.67Q222.20 11.77 222.48 11.77L222.48 11.77L222.48 11.77Q225.39 11.75 225.92 11.69L225.92 11.69L225.92 11.69Q226.44 11.63 226.52 11.38L226.52 11.38L226.53 11.36L226.54 11.35L226.76 10.17L227.24 10.25L226.89 12.41L219.79 12.41L219.79 11.87L220.16 11.87L220.16 11.87Q220.72 11.87 220.80 11.80L220.80 11.80L220.80 11.80Q220.90 11.72 220.90 11.33L220.90 11.33L220.90 4.24L220.90 4.24Q220.90 3.82 220.75 3.73L220.75 3.73L220.75 3.73Q220.58 3.64 219.92 3.64L219.92 3.64L219.52 3.64ZM235.45 3.64L235.06 3.64L235.07 3.08L238.29 3.08L238.29 3.08Q239.43 3.08 240.03 3.21L240.03 3.21L240.03 3.21Q240.67 3.37 241.14 3.75L241.14 3.75L241.14 3.75Q242.14 4.57 242.14 5.71L242.14 5.71L242.14 5.71Q242.14 6.43 241.67 7.04L241.67 7.04L241.67 7.04Q241.18 7.66 240.15 7.92L240.15 7.92L242.83 11.49L242.83 11.49Q243.14 11.87 243.43 11.87L243.43 11.87L244.04 11.87L244.06 12.41L242.03 12.41L239.04 8.10L238.87 8.10L238.87 8.10Q238.83 8.10 238.77 8.11L238.77 8.11L238.77 8.11Q238.72 8.11 238.70 8.11L238.70 8.11L238.70 8.11Q237.82 8.11 237.43 8.03L237.43 8.03L237.43 11.46L237.43 11.46Q237.43 11.76 237.57 11.81L237.57 11.81L237.57 11.81Q237.69 11.87 238.40 11.87L238.40 11.87L239.11 11.87L239.08 12.41L235.35 12.41L235.35 11.87L235.68 11.87L235.68 11.87Q236.14 11.87 236.21 11.81L236.21 11.81L236.21 11.81Q236.29 11.74 236.29 11.46L236.29 11.46L236.29 4.14L236.29 4.14Q236.29 3.82 236.10 3.73L236.10 3.73L236.10 3.73Q235.87 3.64 235.45 3.64L235.45 3.64ZM237.43 4.28L237.43 7.57L237.43 7.57Q237.61 7.70 238.32 7.71L238.32 7.71L238.32 7.71Q239.59 7.71 240.17 7.27L240.17 7.27L240.17 7.27Q240.76 6.84 240.76 5.92L240.76 5.92L240.76 5.92Q240.76 4.92 239.99 4.27L239.99 4.27L239.99 4.27Q239.23 3.64 237.85 3.64L237.85 3.64L237.85 3.64Q237.60 3.64 237.51 3.75L237.51 3.75L237.51 3.75Q237.43 3.84 237.43 4.28L237.43 4.28ZM251.83 12.41L251.82 11.87L251.99 11.87L251.99 11.87Q252.38 11.87 252.51 11.73L252.51 11.73L252.51 11.73Q252.63 11.57 252.96 10.83L252.96 10.83L253.87 8.82L254.45 7.53L254.45 7.53Q254.71 6.97 254.75 6.86L254.75 6.86L254.75 6.86Q254.82 6.70 254.87 6.60L254.87 6.60L254.87 6.60Q254.93 6.51 254.94 6.45L254.94 6.45L255.04 6.21L256.46 2.74L256.76 2.74L256.76 2.74Q257.61 4.98 259.80 10.25L259.80 10.25L259.80 10.25Q260.25 11.34 260.44 11.64L260.44 11.64L260.44 11.64Q260.58 11.87 261.02 11.87L261.02 11.87L261.23 11.87L261.21 12.41L258.02 12.41L258.04 11.87L258.45 11.87L258.45 11.87Q259.07 11.87 259.07 11.70L259.07 11.70L259.07 11.70Q259.07 11.63 258.93 11.27L258.93 11.27L257.89 8.72L254.65 8.72L253.54 11.18L253.54 11.18Q253.40 11.50 253.40 11.63L253.40 11.63L253.40 11.63Q253.40 11.79 253.50 11.83L253.50 11.83L253.50 11.83Q253.59 11.87 253.98 11.87L253.98 11.87L254.55 11.87L254.55 12.41L251.83 12.41ZM256.33 4.79L254.91 8.10L257.65 8.10L256.33 4.79ZM269.24 5.35L268.74 5.33L268.74 5.33Q268.86 4.17 268.95 3.08L268.95 3.08L277.03 3.08L277.03 3.08Q276.94 4.13 276.92 4.53L276.92 4.53L276.92 4.53Q276.88 5.26 276.86 5.32L276.86 5.32L276.36 5.30L276.36 5.30Q276.44 4.34 276.44 4.16L276.44 4.16L276.44 4.16Q276.44 3.88 276.29 3.79L276.29 3.79L276.29 3.79Q276.12 3.69 275.72 3.69L275.72 3.69L274.11 3.69L274.11 3.69Q273.61 3.69 273.49 3.79L273.49 3.79L273.49 3.79Q273.39 3.87 273.38 4.36L273.38 4.36L273.38 11.22L273.38 11.22Q273.38 11.66 273.53 11.76L273.53 11.76L273.53 11.76Q273.68 11.87 274.20 11.87L274.20 11.87L274.76 11.87L274.77 12.41L271.08 12.40L271.08 11.87L271.30 11.87L271.30 11.87Q271.97 11.87 272.11 11.79L272.11 11.79L272.11 11.79Q272.25 11.70 272.25 11.28L272.25 11.28L272.25 4.48L272.25 4.48Q272.25 3.92 272.16 3.80L272.16 3.80L272.16 3.80Q272.06 3.69 271.63 3.69L271.63 3.69L270.16 3.69L270.16 3.69Q269.98 3.69 269.91 3.71L269.91 3.71L269.91 3.71Q269.84 3.72 269.73 3.72L269.73 3.72L269.73 3.72Q269.71 3.72 269.59 3.79L269.59 3.79L269.59 3.79Q269.51 3.84 269.48 3.86L269.48 3.86L269.48 3.86Q269.45 3.88 269.41 3.99L269.41 3.99L269.41 3.99Q269.38 4.05 269.36 4.14L269.36 4.14L269.36 4.14Q269.33 4.21 269.31 4.36L269.31 4.36L269.31 4.36Q269.28 4.59 269.28 4.61L269.28 4.61L269.28 4.61Q269.28 4.80 269.27 4.95L269.27 4.95L269.27 4.95Q269.27 5.02 269.26 5.15L269.26 5.15L269.26 5.15Q269.25 5.29 269.24 5.35L269.24 5.35ZM285.15 7.83L285.15 7.83L285.15 7.83Q285.15 6.62 285.55 5.68L285.55 5.68L285.55 5.68Q285.97 4.72 286.66 4.12L286.66 4.12L286.66 4.12Q287.35 3.51 288.21 3.19L288.21 3.19L288.21 3.19Q289.05 2.88 290.00 2.88L290.00 2.88L290.00 2.88Q291.26 2.88 292.31 3.40L292.31 3.40L292.31 3.40Q293.39 3.93 294.10 5.07L294.10 5.07L294.10 5.07Q294.80 6.17 294.81 7.75L294.81 7.75L294.81 7.75Q294.81 8.70 294.50 9.54L294.50 9.54L294.50 9.54Q294.19 10.38 293.59 11.10L293.59 11.10L293.59 11.10Q292.98 11.81 292.04 12.22L292.04 12.22L292.04 12.22Q291.08 12.63 289.89 12.64L289.89 12.64L289.89 12.64Q288.76 12.64 287.82 12.23L287.82 12.23L287.82 12.23Q286.88 11.83 286.32 11.14L286.32 11.14L286.32 11.14Q285.75 10.45 285.46 9.60L285.46 9.60L285.46 9.60Q285.15 8.72 285.15 7.83ZM286.41 7.38L286.41 7.38L286.41 7.38Q286.41 8.52 286.84 9.60L286.84 9.60L286.84 9.60Q287.24 10.64 288.17 11.33L288.17 11.33L288.17 11.33Q289.08 12.03 290.27 12.04L290.27 12.04L290.27 12.04Q291.64 12.04 292.58 11.01L292.58 11.01L292.58 11.01Q293.53 9.97 293.53 8.10L293.53 8.10L293.53 8.10Q293.53 5.99 292.37 4.72L292.37 4.72L292.37 4.72Q291.22 3.46 289.71 3.45L289.71 3.45L289.71 3.45Q289.19 3.45 288.64 3.65L288.64 3.65L288.64 3.65Q288.10 3.85 287.59 4.25L287.59 4.25L287.59 4.25Q287.05 4.68 286.73 5.48L286.73 5.48L286.73 5.48Q286.41 6.27 286.41 7.38ZM303.26 3.64L302.87 3.64L302.88 3.08L306.10 3.08L306.10 3.08Q307.23 3.08 307.84 3.21L307.84 3.21L307.84 3.21Q308.48 3.37 308.94 3.75L308.94 3.75L308.94 3.75Q309.95 4.57 309.95 5.71L309.95 5.71L309.95 5.71Q309.95 6.43 309.48 7.04L309.48 7.04L309.48 7.04Q308.98 7.66 307.95 7.92L307.95 7.92L310.64 11.49L310.64 11.49Q310.95 11.87 311.24 11.87L311.24 11.87L311.84 11.87L311.87 12.41L309.84 12.41L306.84 8.10L306.67 8.10L306.67 8.10Q306.63 8.10 306.58 8.11L306.58 8.11L306.58 8.11Q306.52 8.11 306.51 8.11L306.51 8.11L306.51 8.11Q305.63 8.11 305.23 8.03L305.23 8.03L305.23 11.46L305.23 11.46Q305.23 11.76 305.38 11.81L305.38 11.81L305.38 11.81Q305.50 11.87 306.20 11.87L306.20 11.87L306.91 11.87L306.89 12.41L303.16 12.41L303.16 11.87L303.48 11.87L303.48 11.87Q303.95 11.87 304.01 11.81L304.01 11.81L304.01 11.81Q304.10 11.74 304.10 11.46L304.10 11.46L304.10 4.14L304.10 4.14Q304.10 3.82 303.91 3.73L303.91 3.73L303.91 3.73Q303.68 3.64 303.26 3.64L303.26 3.64ZM305.23 4.28L305.23 7.57L305.23 7.57Q305.42 7.70 306.13 7.71L306.13 7.71L306.13 7.71Q307.40 7.71 307.98 7.27L307.98 7.27L307.98 7.27Q308.57 6.84 308.57 5.92L308.57 5.92L308.57 5.92Q308.57 4.92 307.79 4.27L307.79 4.27L307.79 4.27Q307.04 3.64 305.66 3.64L305.66 3.64L305.66 3.64Q305.40 3.64 305.32 3.75L305.32 3.75L305.32 3.75Q305.24 3.84 305.23 4.28L305.23 4.28Z"
       id="path29" />
  </g>
</svg>
