<?xml version="1.0" encoding="UTF-8" standalone="no"?>
<!-- Created with Inkscape (http://www.inkscape.org/) -->

<svg
   xmlns:dc="http://purl.org/dc/elements/1.1/"
   xmlns:cc="http://creativecommons.org/ns#"
   xmlns:rdf="http://www.w3.org/1999/02/22-rdf-syntax-ns#"
   xmlns:svg="http://www.w3.org/2000/svg"
   xmlns="http://www.w3.org/2000/svg"
   xmlns:sodipodi="http://sodipodi.sourceforge.net/DTD/sodipodi-0.dtd"
   xmlns:inkscape="http://www.inkscape.org/namespaces/inkscape"
   width="500"
   height="177.99898"
   viewBox="0 0 500.00001 177.99898"
   id="svg2"
   version="1.1"
   inkscape:version="0.92.5 (2060ec1f9f, 2020-04-08)"
   sodipodi:docname="wordmark.svg">
  <defs
     id="defs4" />
  <sodipodi:namedview
     id="base"
     pagecolor="#ffffff"
     bordercolor="#666666"
     borderopacity="1.0"
     inkscape:pageopacity="0.0"
     inkscape:pageshadow="2"
     inkscape:zoom="2.814"
     inkscape:cx="250"
     inkscape:cy="88.999489"
     inkscape:document-units="px"
     inkscape:current-layer="layer1"
     showgrid="false"
     units="px"
     inkscape:showpageshadow="false"
     inkscape:window-width="1920"
     inkscape:window-height="1018"
     inkscape:window-x="0"
     inkscape:window-y="34"
     inkscape:window-maximized="1" />
  <metadata
     id="metadata7">
    <rdf:RDF>
      <cc:Work
         rdf:about="">
        <dc:format>image/svg+xml</dc:format>
        <dc:type
           rdf:resource="http://purl.org/dc/dcmitype/StillImage" />
        <dc:title></dc:title>
        <dc:creator>
          <cc:Agent>
            <dc:title>Ramiro Gómez</dc:title>
          </cc:Agent>
        </dc:creator>
        <dc:rights>
          <cc:Agent>
            <dc:title>© Ramiro Gómez 2018 - ramiro.org</dc:title>
          </cc:Agent>
        </dc:rights>
      </cc:Work>
    </rdf:RDF>
  </metadata>
  <g
     inkscape:label="Layer 1"
     inkscape:groupmode="layer"
     id="layer1"
     transform="translate(-494.89985,-484.17172)">
    <g
       transform="matrix(4.0610024,0,0,4.0610024,-60.960741,4.6293495)"
       id="g835"
       inkscape:export-xdpi="37"
       inkscape:export-ydpi="37">
      <path
         inkscape:connector-curvature="0"
         id="path878"
         d="m 136.87768,152.71627 v -34.63154 h 6.45734 v 28.57102 h 14.64625 v 6.06052 z"
         style="fill:#12262a;stroke-width:3.6074512" />
      <path
         inkscape:connector-curvature="0"
         id="path876"
         d="m 171.83398,125.55273 c -3.5834,0 -6.24107,1.12996 -7.97265,3.39063 -1.75563,2.26067 -2.63281,5.76027 -2.63281,10.49805 0,4.73778 0.87718,8.23737 2.63281,10.49804 1.73158,2.26067 4.38925,3.39063 7.97265,3.39063 3.55936,0 6.21703,-1.12996 7.97266,-3.39063 1.75563,-2.26067 2.63281,-5.76026 2.63281,-10.49804 0,-4.73778 -0.87718,-8.23738 -2.63281,-10.49805 -1.75563,-2.26067 -4.4133,-3.39063 -7.97266,-3.39063 z m 0,5.08594 c 1.51514,0 2.60982,0.64858 3.28321,1.94727 0.67339,1.29868 1.00976,3.25944 1.00976,5.88086 v 1.94726 c 0,2.62142 -0.33637,4.58218 -1.00976,5.88086 -0.67339,1.29869 -1.76807,1.94727 -3.28321,1.94727 -1.51512,0 -2.60981,-0.64858 -3.2832,-1.94727 -0.67339,-1.29868 -1.00976,-3.25944 -1.00976,-5.88086 v -1.94726 c 0,-2.62142 0.33637,-4.58218 1.00976,-5.88086 0.67339,-1.29869 1.76808,-1.94727 3.2832,-1.94727 z"
         style="fill:#12262a;stroke-width:3.6074512" />
      <path
         inkscape:connector-curvature="0"
         id="path872"
         d="m 204.01172,121.72852 c 0,0.62529 -0.20444,1.38165 -0.61328,2.27148 -0.40885,0.88984 -1.07049,1.66121 -1.98438,2.31055 -1.27463,-0.50504 -2.75207,-0.75782 -4.43554,-0.75782 -3.12646,0 -5.54443,0.80469 -7.25196,2.41602 -1.70752,1.61133 -2.56054,3.82486 -2.56054,6.63867 0,3.19861 1.08162,5.57935 3.24609,7.14258 -1.15438,0.40885 -2.09296,1.00909 -2.81445,1.80273 -0.72149,0.79364 -1.08203,1.74333 -1.08204,2.84961 0,1.77968 0.70998,3.11602 2.12891,4.00586 -2.26067,1.25058 -3.39062,3.05329 -3.39062,5.41016 0,1.77968 0.56498,3.2349 1.69531,4.36523 1.13033,1.15439 2.52416,1.73243 4.18359,1.73243 h 9.74024 c 1.58728,0 3.03139,-0.33833 4.33007,-1.01172 1.32274,-0.6734 2.35603,-1.63419 3.10157,-2.88477 0.76959,-1.25059 1.15429,-2.68164 1.15429,-4.29297 0,-2.09232 -0.57608,-3.76308 -1.73046,-5.01367 -1.17844,-1.27463 -2.62256,-1.91211 -4.33008,-1.91211 h -9.19922 c -0.43289,0 -0.80454,-0.14499 -1.11719,-0.43359 -0.2886,-0.31265 -0.43359,-0.68625 -0.43359,-1.11914 0,-0.481 0.16916,-0.86571 0.50586,-1.1543 0.33669,-0.31265 0.76973,-0.46875 1.29882,-0.46875 h 2.5254 c 3.17455,0 5.60362,-0.80469 7.2871,-2.41602 1.70753,-1.61133 2.56055,-3.8118 2.56055,-6.60156 0,-2.50116 -0.70997,-4.54553 -2.1289,-6.13281 2.86191,-0.86579 4.29296,-3.11459 4.29296,-6.74609 z m -7.0332,8.33203 c 1.25058,0 2.1872,0.38665 2.8125,1.15625 0.64934,0.79363 0.9746,1.92359 0.9746,3.39062 10e-6,1.44298 -0.32526,2.55988 -0.9746,3.35352 -0.6253,0.79364 -1.56192,1.1914 -2.8125,1.1914 -1.20249,0 -2.12996,-0.39776 -2.7793,-1.1914 -0.64934,-0.79364 -0.97266,-1.91054 -0.97266,-3.35352 0,-1.46703 0.32332,-2.59699 0.97266,-3.39062 0.64934,-0.7696 1.57681,-1.15625 2.7793,-1.15625 z m -3.17579,22.36718 h 7.07032 c 0.69744,0 1.28659,0.21555 1.76757,0.64844 0.45695,0.4329 0.68555,1.02204 0.68555,1.76758 0,0.74554 -0.25082,1.34774 -0.75586,1.80469 -0.52909,0.45694 -1.17962,0.68554 -1.94922,0.68554 h -6.81836 c -0.72149,0 -1.29757,-0.2286 -1.73046,-0.68554 -0.45694,-0.45695 -0.68555,-1.05915 -0.68555,-1.80469 0,-0.67339 0.22861,-1.24947 0.68555,-1.73047 0.48099,-0.45694 1.05707,-0.68555 1.73046,-0.68555 z"
         style="fill:#12262a;stroke-width:3.6074512" />
      <path
         inkscape:connector-curvature="0"
         id="path866"
         d="M 220.23285,153.33008 V 142.8557 l -11.00646,-17.30297 h 7.07558 l 7.33763,12.18152 h 0.22463 l 7.26275,-12.18152 h 6.77609 l -10.96901,17.30297 v 10.47438 z"
         style="fill:#12262a;stroke-width:3.29124093" />
      <path
         inkscape:connector-curvature="0"
         id="path864"
         d="m 248.34766,125.55273 c -2.74166,0 -4.91797,0.67276 -6.5293,2.01954 -1.63537,1.34678 -2.45313,3.12727 -2.45313,5.33984 0,0.55314 0.013,0.92479 0.0371,1.11719 h 5.91602 v -0.75782 c 0,-0.74554 0.25277,-1.39412 0.75781,-1.94726 0.50504,-0.55314 1.30973,-0.83008 2.41602,-0.83008 1.08223,0 1.81638,0.28805 2.20117,0.86524 0.3848,0.57719 0.57617,1.38382 0.57617,2.41796 v 2.77735 c -4.20869,0 -7.45551,0.70997 -9.74023,2.1289 -2.28472,1.41894 -3.42578,3.81078 -3.42578,7.17774 0,2.71761 0.69691,4.6431 2.09179,5.77344 1.39488,1.13033 2.90954,1.69531 4.54492,1.69531 1.65943,0 2.98271,-0.29 3.96875,-0.86719 1.01009,-0.57719 1.93561,-1.45437 2.77735,-2.63281 h 0.25195 c 0.28859,1.08224 0.85357,1.93526 1.69531,2.56054 0.81769,0.6253 1.81571,0.93946 2.99414,0.93946 1.37084,0 2.56218,-0.26583 3.57227,-0.79492 v -4.29297 h -1.19141 c -0.40884,0 -0.74522,-0.14304 -1.00976,-0.43164 -0.2886,-0.2886 -0.43164,-0.73469 -0.43164,-1.33594 v -13.09375 c 0,-2.52522 -0.74525,-4.46181 -2.23633,-5.80859 -1.49108,-1.34678 -3.75294,-2.01954 -6.7832,-2.01954 z m 2.92187,15.40235 v 1.51562 c 0,1.70753 -0.32331,3.10331 -0.97265,4.18555 -0.67339,1.08223 -1.68448,1.62305 -3.03126,1.62305 -1.01008,0 -1.75533,-0.26388 -2.23632,-0.79297 -0.481,-0.50504 -0.72266,-1.23919 -0.72266,-2.20117 0,-1.56324 0.65054,-2.68209 1.94922,-3.35547 1.29868,-0.64935 2.96944,-0.97461 5.01367,-0.97461 z"
         style="fill:#12262a;stroke-width:3.6074512" />
    </g>
  </g>
</svg>
